<svg width="23" height="23" viewBox="0 0 23 23" fill="none" xmlns="http://www.w3.org/2000/svg">
<g clip-path="url(#clip0_48_386)">
<path d="M0 18.6435L2.34876 14.7169C2.55194 12.0234 2.00742 8.95671 2.88516 6.39304C5.42085 -0.965332 15.3523 -2.65281 18.7739 4.94895C19.2615 6.02797 19.6922 7.44772 19.7572 8.62409C19.8629 10.6036 19.7247 12.6724 19.8141 14.6601C20.83 16.0149 22.0166 17.24 22.9594 18.6354C23.0813 19.1546 22.8375 19.6414 22.2848 19.7144H14.7671C14.8322 21.0449 13.93 22.2781 12.7272 22.7729L12.0445 22.992H10.9148C9.3788 22.6675 8.12721 21.3288 8.19223 19.7144H0.690813C0.357597 19.6738 0.170671 19.4061 0 19.1546V18.6435ZM20.3749 18.0756C20.3424 17.9458 20.2042 17.7997 20.1148 17.6943C19.7816 17.2805 18.2456 15.5606 18.1806 15.2199C18.1237 14.9602 18.1237 14.2625 18.1155 13.9542C18.0343 11.5609 18.3675 8.89181 17.6198 6.61209C16.8721 4.33237 15.2223 2.17435 12.6459 1.79305C8.96431 1.24948 5.85159 3.33449 4.56749 6.72567C3.88481 8.53484 4.08799 10.8714 4.05548 12.8184C4.03922 13.4675 4.17739 14.9035 3.9417 15.4227L2.30813 18.0675H20.3749V18.0756ZM13.1336 19.7225H9.85018C10.0371 21.8562 12.9466 21.8643 13.1336 19.7225Z" fill="#9B9F00"/>
</g>
<defs>
<clipPath id="clip0_48_386">
<rect width="23" height="23" fill="white"/>
</clipPath>
</defs>
</svg>
