<svg width="50" height="50" viewBox="0 0 50 50" fill="none" xmlns="http://www.w3.org/2000/svg">
<g clip-path="url(#clip0_53_2745)">
<path d="M0.00497203 24.5389C0.0604939 23.415 0.110968 22.0038 0.706567 20.9959C1.52425 19.615 3.27067 19.0052 4.76976 18.7128C5.08775 18.6524 6.1679 18.6473 6.24362 18.4256C6.54646 17.5184 6.43542 16.0115 6.72312 15.0388C5.27451 13.9149 4.68395 12.4937 5.23917 10.6895C5.41079 10.13 5.7843 9.66133 6.01143 9.12208C6.6676 7.56477 7.08654 5.92179 7.39948 4.26369C7.58119 3.31621 7.67709 1.37588 7.96479 0.635027C8.2525 -0.105826 9.32256 -0.196543 9.76169 0.408235C10.2866 1.13901 10.9579 2.60559 11.392 3.46236C12.3965 5.44805 14.1933 8.92048 13.9763 11.1229C13.8602 12.3224 13.0728 13.5168 12.24 14.3534L12.8002 18.0022C14.0672 17.8712 15.5309 17.6142 16.6767 17.0447C22.0573 14.3736 17.9688 4.27881 21.7443 0.932376C23.4049 -0.53421 28.0082 0.0604877 30.113 0.468713C46.3355 3.63372 54.7092 21.7771 47.239 36.4379C43.4483 43.8817 35.3926 49.4255 26.9634 49.995H22.7639L19.049 49.36C16.3082 48.7149 13.6987 47.596 11.3314 46.0891C11.0437 47.0618 10.8519 48.5284 10.4027 49.4053C10.2563 49.6875 10.0999 49.7984 9.86263 49.9899H9.08028C8.4544 49.491 8.28278 48.4175 8.05565 47.6464C7.79823 46.7796 7.58119 45.8926 7.3692 45.0156C7.17739 44.2193 7.09159 42.9493 6.80893 42.2589C6.63732 41.8305 5.86001 41.1451 5.52688 40.7116C2.35203 36.584 0.161443 31.4485 0.105921 26.1466C0.105921 25.9803 0.16649 25.7131 0.00497203 25.6123C0.0150669 25.2545 -0.0101703 24.8967 0.00497203 24.5389ZM13.1031 20.0585C13.6028 26.3078 13.6735 32.5875 12.8861 38.8167C12.6741 40.4848 12.3813 42.153 12.0381 43.796C19.7001 49.2642 30.4814 49.1987 38.1384 43.7355C49.7778 35.4299 51.3224 18.864 41.0912 8.72897C37.033 4.71224 30.1483 1.76898 24.3791 2.19233C23.0466 2.28809 22.6276 3.04406 22.3298 4.24353C21.3607 8.18971 22.5772 12.5743 20.4067 16.3693C18.8875 19.0303 15.9398 19.6553 13.1031 20.0534V20.0585ZM9.57998 4.64168C9.31246 5.99235 9.01971 7.35814 8.57554 8.66345C8.25755 9.59078 7.71747 10.4526 7.41462 11.3094C6.81398 12.9876 8.35849 13.7133 9.82225 13.3202C13.1738 12.4232 11.6191 8.53746 10.5491 6.46105L9.58502 4.64168H9.57998ZM9.57998 44.8292C11.0589 37.4055 11.71 29.8105 11.1447 22.2458C10.9781 20.0282 10.645 17.8309 10.3472 15.6285C10.3169 15.5075 10.2513 15.4722 10.1301 15.4672C9.77178 15.4672 9.22666 15.6537 8.80772 15.568C7.57109 24.3978 7.30358 33.5097 8.92886 42.3093C9.05 42.9695 9.17618 43.8817 9.37303 44.5016C9.41341 44.6326 9.40836 44.7989 9.57998 44.8292ZM5.86506 20.7338C4.7849 20.8044 2.56907 21.2277 2.27128 22.4625C2.2208 22.6691 2.17033 23.1832 2.15014 23.415C1.79682 28.349 3.13944 33.8071 6.05686 37.8037C5.49155 32.1288 5.40574 26.4137 5.86001 20.7338H5.86506Z" fill="#6C6F00"/>
<path d="M36.7348 12.655C36.7348 15.8502 34.1404 18.4457 30.9353 18.4457C27.7301 18.4457 25.1357 15.8553 25.1357 12.655C25.1357 9.45469 27.7301 6.86423 30.9353 6.86423C34.1404 6.86423 36.7348 9.45469 36.7348 12.655ZM34.5644 12.5391C34.5644 10.5383 32.9441 8.92047 30.9403 8.92047C28.9365 8.92047 27.3162 10.5383 27.3162 12.5391C27.3162 14.5399 28.9365 16.1576 30.9403 16.1576C32.9441 16.1576 34.5644 14.5399 34.5644 12.5391Z" fill="#6C6F00"/>
<path d="M44.3523 26.8874C44.3523 30.0776 41.7579 32.6681 38.5629 32.6681C35.3678 32.6681 32.7734 30.0776 32.7734 26.8874C32.7734 23.6972 35.3678 21.1068 38.5629 21.1068C41.7579 21.1068 44.3523 23.6972 44.3523 26.8874ZM42.2727 26.9025C42.2727 24.9118 40.6575 23.294 38.6588 23.294C36.66 23.294 35.0448 24.9068 35.0448 26.9025C35.0448 28.8983 36.66 30.511 38.6588 30.511C40.6575 30.511 42.2727 28.8983 42.2727 26.9025Z" fill="#6C6F00"/>
<path d="M33.3031 38.9729C33.3031 42.1631 30.7138 44.7485 27.5187 44.7485C24.3237 44.7485 21.7344 42.1631 21.7344 38.9729C21.7344 35.7827 24.3237 33.1973 27.5187 33.1973C30.7138 33.1973 33.3031 35.7827 33.3031 38.9729ZM31.1428 39.0737C31.1428 37.0779 29.5226 35.4601 27.5238 35.4601C25.525 35.4601 23.9048 37.0779 23.9048 39.0737C23.9048 41.0695 25.525 42.6872 27.5238 42.6872C29.5226 42.6872 31.1428 41.0695 31.1428 39.0737Z" fill="#6C6F00"/>
</g>
<defs>
<clipPath id="clip0_53_2745">
<rect width="50" height="50" fill="white"/>
</clipPath>
</defs>
</svg>
