<svg width="42" height="52" viewBox="0 0 42 52" fill="none" xmlns="http://www.w3.org/2000/svg">
<g clip-path="url(#clip0_58_2812)">
<path d="M15.0798 21.78C15.3598 23.86 18.0998 26.79 19.6398 28.16C22.8098 30.98 26.7298 32.37 27.1198 37.34L27.0598 50.3C26.8598 50.73 26.4598 51.06 25.9698 51.03H3.9498C3.5398 51.03 3.0998 50.89 2.8598 50.54L2.7998 33.1C3.3698 28.05 4.7698 23.14 5.3598 18.1L7.1598 18.35C7.5298 18.79 5.4998 28.04 5.2698 29.37C4.1398 35.85 4.7998 42.53 4.6198 49.08H25.1598V36.99C25.1598 36.91 24.9298 36.32 24.8598 36.32H7.1798V34.5H24.0698C22.6798 32.5 20.4198 31.4 18.5998 29.82C16.7798 28.24 13.1298 24.35 13.1298 21.8V18.21H15.0698C15.1798 19.33 14.9198 20.71 15.0698 21.8L15.0798 21.78Z" fill="#6C6F00"/>
<path d="M7.87 2.79001L28.88 2.76001C29.57 2.76001 30.07 2.92001 30.15 3.67001C30.36 5.51001 30.03 7.81001 30.09 9.70001C29.97 10.07 29.46 10.24 29.1 10.29C26.33 10.66 23.09 9.66001 20.46 10.89C18.89 11.62 17.75 12.91 16.87 14.35C16.59 14.81 16.38 15.74 15.83 15.86H2.04C1.84 15.8 1.67 15.54 1.57 15.36C1.3 14.9 0.01 11.72 0 11.33C0 11.17 0.01 11.05 0.06 10.9C0.12 10.71 1.99 8.75001 2.31 8.41001C4.12 6.50001 6.02 4.66001 7.87 2.79001ZM23.83 4.71001H8.7L2.13 11.4C1.99 11.74 3.02 13.58 3.12 14.08L14.75 14.05C16.07 11.85 17.63 9.92001 20.1 8.94001C20.47 8.79001 21.75 8.35001 22.07 8.35001H23.83V4.70001V4.71001ZM28.21 4.71001H25.78V8.36001H28.21V4.71001Z" fill="#6C6F00"/>
<path d="M21.3695 13.24C22.5095 13 22.7195 14.66 23.1195 15.45C23.5495 16.3 24.2695 17.33 24.9195 18.03C25.3495 18.5 26.4895 19.04 26.3595 19.82C26.2595 20.43 25.7295 20.75 25.1295 20.62C24.2395 20.42 22.3195 17.94 21.8295 17.11C21.3395 16.28 19.7895 13.58 21.3595 13.25L21.3695 13.24Z" fill="#6C6F00"/>
<path d="M39.5896 7.94C40.4346 7.94 41.1196 7.255 41.1196 6.41C41.1196 5.56501 40.4346 4.88 39.5896 4.88C38.7446 4.88 38.0596 5.56501 38.0596 6.41C38.0596 7.255 38.7446 7.94 39.5896 7.94Z" fill="#6C6F00"/>
<path d="M39.5798 12.82C40.4248 12.82 41.1098 12.135 41.1098 11.29C41.1098 10.445 40.4248 9.76001 39.5798 9.76001C38.7348 9.76001 38.0498 10.445 38.0498 11.29C38.0498 12.135 38.7348 12.82 39.5798 12.82Z" fill="#6C6F00"/>
<path d="M39.5798 3.06C40.4248 3.06 41.1098 2.375 41.1098 1.53C41.1098 0.685004 40.4248 0 39.5798 0C38.7348 0 38.0498 0.685004 38.0498 1.53C38.0498 2.375 38.7348 3.06 39.5798 3.06Z" fill="#6C6F00"/>
<path d="M34.5202 5.5C35.3652 5.5 36.0502 4.815 36.0502 3.97C36.0502 3.12501 35.3652 2.44 34.5202 2.44C33.6752 2.44 32.9902 3.12501 32.9902 3.97C32.9902 4.815 33.6752 5.5 34.5202 5.5Z" fill="#6C6F00"/>
<path d="M34.5202 10.38C35.3652 10.38 36.0502 9.695 36.0502 8.85001C36.0502 8.00501 35.3652 7.32001 34.5202 7.32001C33.6752 7.32001 32.9902 8.00501 32.9902 8.85001C32.9902 9.695 33.6752 10.38 34.5202 10.38Z" fill="#6C6F00"/>
</g>
<defs>
<clipPath id="clip0_58_2812">
<rect width="41.12" height="51.02" fill="white"/>
</clipPath>
</defs>
</svg>
