<svg width="29" height="29" viewBox="0 0 29 29" fill="none" xmlns="http://www.w3.org/2000/svg">
<g clip-path="url(#clip0_48_190)">
<path d="M28.09 28.32H0V24.78C0.12 24.62 0.24 24.48 0.47 24.5H27.95C28.18 24.55 28.29 24.69 28.31 24.92C28.42 25.86 28.22 27 28.31 27.97C28.32 28.14 28.15 28.19 28.09 28.33V28.32ZM0.88 25.44V27.43H27.42V25.44H0.88Z" fill="#9B9F00"/>
<path d="M0 8.96998V6.03998C0.27 5.79998 0.63 5.67998 0.96 5.52998C5.27 3.62998 9.66 1.91998 13.97 0.019975C14.22 -0.050025 14.42 0.049975 14.65 0.149975L28.05 5.82998C28.24 5.93998 28.29 6.00998 28.32 6.22998C28.4 7.05998 28.25 8.03998 28.32 8.87998C28.3 9.09998 28.1 9.18997 27.91 9.23997H0.52C0.3 9.23997 0.12 9.13998 0 8.96998ZM27.43 8.29998V6.60998C27.1 6.39998 26.73 6.26998 26.38 6.10998C22.34 4.33998 18.22 2.71997 14.18 0.949975C9.74 2.83997 5.29 4.67998 0.88 6.61998V8.30998H27.42L27.43 8.29998Z" fill="#9B9F00"/>
<path d="M21.4 11.45H25.49V10.04C25.49 9.74996 26.2 9.49996 26.39 9.96996C26.47 10.17 26.46 11.57 26.43 11.87C26.38 12.47 25.91 12.41 25.43 12.39V21.24C25.94 21.24 26.37 21.13 26.43 21.76C26.46 22.04 26.46 23.48 26.39 23.66C26.22 24.06 25.49 23.92 25.49 23.54V22.19H21.4V23.54C21.4 23.92 20.67 24.07 20.5 23.66C20.43 23.49 20.43 21.92 20.46 21.65C20.53 21.08 21.1 21.26 21.51 21.24V12.39C21.08 12.39 20.52 12.48 20.46 11.92C20.43 11.65 20.43 10.16 20.5 9.96996C20.69 9.50996 21.4 9.70996 21.4 10.09V11.44V11.45ZM24.5 12.39H22.45V21.24H24.5V12.39Z" fill="#9B9F00"/>
<path d="M2.82 11.45H6.91V10.1C6.91 9.70997 7.62 9.50997 7.81 9.97997C7.89 10.18 7.88 11.58 7.85 11.88C7.8 12.48 7.33 12.42 6.85 12.4V21.25C7.37 21.25 7.79 21.13 7.85 21.77C7.88 22.05 7.88 23.49 7.81 23.67C7.64 24.07 6.91 23.93 6.91 23.55V22.2H2.82V23.55C2.82 23.93 2.09 24.08 1.92 23.67C1.85 23.5 1.85 21.99 1.88 21.72C1.95 21.13 2.48 21.26 2.93 21.25V12.4C2.5 12.4 1.94 12.49 1.88 11.93C1.85 11.66 1.85 10.17 1.92 9.97997C2.11 9.50997 2.82 9.74997 2.82 10.05V11.46V11.45ZM5.92 12.39H3.87V21.24H5.92V12.39Z" fill="#9B9F00"/>
<path d="M12.11 11.5099H16.2V10.1599C16.2 9.77993 16.93 9.62993 17.1 10.0399C17.18 10.2199 17.17 11.6599 17.14 11.9399C17.08 12.5699 16.65 12.4599 16.14 12.4599V21.3099C16.62 21.2899 17.08 21.2399 17.14 21.8299C17.17 22.1199 17.18 23.5199 17.1 23.7299C16.91 24.1999 16.2 23.9599 16.2 23.6599V22.2499H12.11V23.6599C12.11 23.9499 11.4 24.1999 11.21 23.7299C11.13 23.5399 11.13 22.0499 11.17 21.7799C11.24 21.2199 11.79 21.2999 12.22 21.3099V12.4599C11.76 12.4499 11.23 12.5899 11.17 11.9899C11.14 11.7199 11.14 10.2099 11.21 10.0399C11.39 9.62993 12.11 9.81993 12.11 10.1099V11.5199V11.5099ZM15.21 12.4499H13.16V21.2999H15.21V12.4499Z" fill="#9B9F00"/>
<path d="M16.05 5.11996C16.05 6.16996 15.2 7.02996 14.14 7.02996C13.08 7.02996 12.23 6.17996 12.23 5.11996C12.23 4.05996 13.08 3.20996 14.14 3.20996C15.2 3.20996 16.05 4.05996 16.05 5.11996ZM15.11 5.11996C15.11 4.57996 14.67 4.14996 14.14 4.14996C13.61 4.14996 13.17 4.58996 13.17 5.11996C13.17 5.64996 13.61 6.08996 14.14 6.08996C14.67 6.08996 15.11 5.64996 15.11 5.11996Z" fill="#9B9F00"/>
</g>
<defs>
<clipPath id="clip0_48_190">
<rect width="28.35" height="28.32" fill="white"/>
</clipPath>
</defs>
</svg>
