<svg width="54" height="49" viewBox="0 0 54 49" fill="none" xmlns="http://www.w3.org/2000/svg">
<g clip-path="url(#clip0_58_2796)">
<path d="M9.61989 5.80001C6.8799 6.26001 7.0399 3.33001 9.73989 3.87001C10.0799 1.93001 10.8199 -0.369995 13.2599 0.0600054C13.6899 0.130005 14.0299 0.510005 14.3699 0.520005C14.7999 0.540005 15.1299 0.140005 15.5999 0.0600054C18.0699 -0.369995 18.7799 1.90001 19.1199 3.87001C21.8199 3.33001 21.9799 6.26001 19.2299 5.80001V9.59001C19.2299 9.75001 18.8399 10.57 18.8699 10.61C21.8599 11.71 24.0999 14.49 25.0399 17.49L26.9299 24.2C28.2499 20.06 29.9499 15.79 34.3899 14.22C34.1099 13.66 33.7899 13.08 33.6999 12.45C33.6099 11.82 33.5399 11.23 33.4599 10.65C33.2699 9.21 33.2199 8.02001 34.0999 6.78001C34.2199 6.60001 34.7099 6.22001 34.7199 6.11001C34.7199 6.02001 34.3499 5.40001 34.2999 5.12001C33.3499 -0.399995 43.6099 -0.399995 42.6599 5.12001C42.6099 5.41001 42.2299 6.02001 42.2399 6.11001C42.2399 6.22001 42.7299 6.61001 42.8599 6.78001C43.7399 8.02001 43.6899 9.21 43.4999 10.65C43.4199 11.23 43.3399 11.85 43.2599 12.45C43.1799 13.05 42.8499 13.67 42.5699 14.22C45.3599 15.27 47.3199 17.43 48.5199 20.12C49.8699 23.14 50.9799 26.56 52.0699 29.67C52.1899 29.91 51.8899 30.85 51.9499 30.93C51.9799 30.96 52.5099 31.17 52.6999 31.32C53.3299 31.81 53.6699 32.39 53.8499 33.17V47.47C53.5499 48.32 52.4899 48.41 51.9999 47.65C51.7999 42.95 52.0799 38.19 51.8599 33.48C51.6399 32.74 50.7199 32.52 50.2499 33.16C49.8599 33.69 50.1999 34.63 49.1099 34.68C47.4999 34.75 48.3199 32.88 48.1499 32.62C48.0399 32.45 46.8899 31.93 46.7999 31.44L45.5599 28.54L48.0699 41.84C48.2799 42.2 47.9099 43.33 47.5399 43.33H44.2299V46.4C44.2299 46.4 43.8699 47.08 43.7999 47.17C42.6399 48.77 39.6999 48.33 38.4999 46.95C38.3199 46.92 37.9799 47.39 37.7799 47.52C36.4599 48.37 34.1399 48.57 33.1199 47.17C33.0499 47.08 32.6899 46.44 32.6899 46.4V43.33H29.3799C29.0199 43.33 28.6499 42.2 28.8499 41.84L31.3599 28.54L30.2999 31.15C29.9199 31.9 28.9999 32.63 28.1599 32.74C27.6599 32.81 25.7999 32.81 25.2899 32.74C24.0799 32.58 22.8599 31.56 22.4299 30.43L21.1299 27.1V45.92C21.1299 45.99 20.7199 46.85 20.6299 46.98C19.8099 48.2 18.1899 48.26 16.8599 48.15C15.8299 48.06 15.1299 47.57 14.3599 46.95C13.0499 48.52 9.3599 48.72 8.1699 46.98C8.0499 46.81 7.6699 46.05 7.6699 45.92V27.1L6.3299 30.51C6.3299 30.93 5.3099 31.83 5.2799 31.99C5.2299 32.24 6.4999 34.26 5.17989 34.65C3.73989 35.08 3.9999 33.73 3.5799 33.17C3.0799 32.49 2.1099 32.8 1.9499 33.59L1.8399 47.67C1.3499 48.43 0.289895 48.34 -0.0201047 47.49V33.07C-0.0801047 32.6 0.689895 31.91 0.689895 31.62C0.689895 31.33 0.179895 30.54 0.359895 30.09C1.8499 25.83 2.4499 20.66 4.1299 16.53C5.15989 13.98 7.3499 11.6 9.9599 10.63C9.98989 10.59 9.5999 9.77001 9.5999 9.61001V5.82001L9.61989 5.80001ZM17.0699 3.87001C16.9399 3.21001 16.7199 2.56001 16.3499 2.00001C14.9599 2.61001 13.9299 2.78001 12.5699 1.96001C12.2899 2.03001 11.8099 3.54001 11.7799 3.87001H17.0699ZM40.5199 5.20001C41.7299 2.20001 35.2099 2.20001 36.4299 5.20001C37.8199 4.73001 39.1299 4.73001 40.5199 5.20001ZM11.8399 5.80001C11.5199 5.80001 11.5099 8.28001 11.5399 8.62001C11.8999 12.5 16.9499 12.5 17.3099 8.62001C17.3399 8.26001 17.3599 5.80001 17.0099 5.80001H11.8399ZM41.5999 9.40001C41.8199 7.87001 40.0999 6.94001 38.7799 6.87001C37.3199 6.79001 35.0399 7.61001 35.4099 9.40001C36.5899 9.14001 37.2499 7.91001 38.5299 7.95001C39.8099 7.99001 40.4299 9.23001 41.5999 9.40001ZM41.3599 11.45C40.6899 11.37 40.0199 10.99 39.4499 10.66C39.1299 10.48 38.7199 9.97001 38.4199 10C37.5599 10.69 36.6199 11.17 35.5799 11.52C35.8899 15.4 41.1499 15.35 41.3599 11.45ZM9.61989 21.01V29.85H19.2399V21.01C19.2399 21.01 19.6699 20.56 19.7199 20.53C20.1899 20.33 20.7599 20.44 21.0399 20.89L24.3599 29.72C24.6099 30.5 26.5799 31.43 26.3999 30.09C24.4599 25.3 24.2999 17.08 20.1999 13.68C19.8199 13.36 18.1599 12.25 17.7399 12.29C17.6499 12.29 16.6199 13.05 16.2299 13.19C14.6599 13.78 13.1699 13.56 11.7399 12.75C11.5399 12.64 11.3899 12.35 11.2099 12.31C10.7799 12.19 9.17989 13.25 8.77989 13.57C7.31989 14.74 6.3199 16.34 5.7299 18.1C4.4399 21.97 3.7199 26.2 2.4399 30.1C2.2699 31.44 4.2399 30.51 4.4799 29.73L7.7999 20.9C8.11989 20.21 9.4299 20.42 9.5999 21.02L9.61989 21.01ZM31.0199 41.39H45.9299L43.5199 28.64C42.6199 29.04 39.9099 29.16 40.3499 27.58C40.7199 26.24 42.2499 27.43 43.1899 26.32C44.5799 24.67 42.9599 22.91 43.2999 21.74C43.5299 20.97 44.8799 20.95 45.1699 21.74L48.5599 30.47C49.2899 31.11 50.2499 30.51 49.9799 29.56C47.7699 25.04 47.1699 18.17 41.9099 16.1C40.6799 15.62 41.0499 15.86 39.9999 16.16C39.2099 16.38 38.4199 16.45 37.5899 16.34C37.0799 16.27 36.2099 15.76 35.9099 15.79C34.7099 15.9 32.5099 17.55 31.7299 18.48C30.3199 20.16 29.0499 23.93 28.2699 26.08C28.1499 26.41 27.7799 27.22 27.7799 27.49C27.7799 27.84 28.2499 29.38 28.3599 29.9C28.3999 30.09 28.2799 30.11 28.5999 30.08L31.7599 21.75C32.0799 20.91 33.4899 20.99 33.6499 21.84C33.7899 22.55 33.1699 23.67 33.1599 24.48C33.1399 25.47 33.6899 26.83 34.8199 26.92C35.4099 26.97 36.3699 26.51 36.5299 27.62C36.7799 29.32 34.4099 28.94 33.4099 28.63L30.9999 41.38L31.0199 41.39ZM19.2399 31.77H9.61989V45.3C9.61989 45.76 10.2299 46.13 10.6499 46.19C12.1899 46.41 13.3299 45.68 13.4699 44.1C13.7399 40.99 13.2599 37.51 13.4699 34.36C13.8099 33.43 15.0499 33.43 15.3899 34.36C15.5999 37.51 15.1199 40.99 15.3899 44.1C15.5199 45.67 16.6699 46.41 18.2099 46.19C18.6299 46.13 19.2399 45.76 19.2399 45.3V31.77ZM37.5199 43.31H34.6299V45.78C34.6299 46.1 35.1399 46.21 35.4099 46.21C36.9999 46.19 37.7199 44.76 37.5199 43.31ZM42.3299 43.31H39.4399C39.2399 44.76 39.9499 46.19 41.5499 46.21C41.8199 46.21 42.3299 46.1 42.3299 45.78V43.31Z" fill="#6C6F00"/>
</g>
<defs>
<clipPath id="clip0_58_2796">
<rect width="53.87" height="48.19" fill="white"/>
</clipPath>
</defs>
</svg>
