<svg width="29" height="29" viewBox="0 0 29 29" fill="none" xmlns="http://www.w3.org/2000/svg">
<g clip-path="url(#clip0_48_201)">
<path d="M7.51 2.2H20.84V0.08L20.92 0H22.13V2.2H26.11C27.17 2.2 28.31 3.37 28.34 4.43V26.06C28.28 27.26 27.26 28.28 26.06 28.35H2.23C1.07 28.25 0.09 27.29 0 26.12V4.38C0.07 3.35 1.19 2.21 2.23 2.21H6.21V0H7.42L7.5 0.08V2.2H7.51ZM6.21 3.44H2.4C2.22 3.44 1.75 3.65 1.61 3.78C1.52 3.87 1.24 4.33 1.24 4.43V9.2H27.1V4.49C27.1 4.2 26.69 3.7 26.42 3.59C26.33 3.55 25.95 3.45 25.88 3.45H22.13V5.71H20.83V3.45H7.51V5.62L7.43 5.7H6.22V3.44H6.21ZM27.1 10.45H1.24V26.12C1.24 26.12 1.36 26.43 1.39 26.48C1.58 26.85 1.94 27.05 2.34 27.11H25.89C26.31 27.11 26.72 26.89 26.93 26.52C26.96 26.47 27.1 26.14 27.1 26.12V10.45Z" fill="#9B9F00"/>
<path d="M11.1 12.2C11.21 12.18 11.87 12.96 12.02 13.07L7.01 18.06L4 15.16C4.15 15.05 4.82 14.27 4.92 14.29L6.96 16.32L11.09 12.2H11.1Z" fill="#9B9F00"/>
<path d="M23.89 14.96H13.84V16.26H23.89V14.96Z" fill="#9B9F00"/>
<path d="M11.15 19.2L12.03 20.07L6.98001 25.12L4.01001 22.16L4.89001 21.29L6.98001 23.37L11.15 19.2Z" fill="#9B9F00"/>
<path d="M23.89 22.02H13.84V23.26H23.89V22.02Z" fill="#9B9F00"/>
</g>
<defs>
<clipPath id="clip0_48_201">
<rect width="28.35" height="28.35" fill="white"/>
</clipPath>
</defs>
</svg>
