<svg width="63" height="50" viewBox="0 0 63 50" fill="none" xmlns="http://www.w3.org/2000/svg">
<g clip-path="url(#clip0_58_2753)">
<path d="M50.7968 15.5583C54.0203 15.276 62.4067 15.6288 62.9912 19.8977L62.9381 45.7664C62.4599 48.4653 57.9877 49.6031 55.6675 49.8853C52.568 50.2646 43.8539 49.7706 43.2871 45.6694L43.3137 19.6154C43.7653 16.9783 48.5474 15.7523 50.7968 15.5583ZM51.2573 18.0102C50.1592 18.1072 49.0079 18.363 47.9718 18.7334C45.5276 19.6066 44.7572 20.5503 47.591 21.7234C50.5843 22.967 55.8003 22.9582 58.7936 21.6793C60.0865 21.1236 61.282 20.4621 59.6703 19.3773C57.6423 18.0102 53.6395 17.8073 51.2662 18.019L51.2573 18.0102ZM60.5382 23.6461C55.9597 25.657 50.3097 25.71 45.7402 23.6461C45.7224 24.8897 45.4922 25.4806 46.608 26.2303C49.4419 28.1178 56.5354 28.0384 59.44 26.3185C60.7507 25.5424 60.5824 25.1014 60.5293 23.6461H60.5382ZM60.5382 28.5588C56.1014 30.6668 50.168 30.6844 45.7402 28.5588C45.7136 30.0494 45.4833 30.5785 46.8648 31.3547C49.805 32.9864 56.0837 32.9599 59.1035 31.5046C60.6179 30.7726 60.6621 30.1993 60.5382 28.5588ZM60.5382 33.6302C55.88 35.5618 50.3806 35.6059 45.7402 33.6302C45.6427 35.1473 45.625 35.7029 47.0242 36.4173C49.743 37.8109 54.5251 37.8461 57.4209 37.0524C59.2718 36.5408 61.0164 35.9322 60.5382 33.6302ZM60.5382 38.5429C56.004 40.598 50.2832 40.6156 45.7402 38.5429C45.811 39.4778 45.4391 40.2275 46.2361 40.889C48.9017 43.0675 56.8365 43.0146 59.6614 41.136C60.7861 40.3863 60.547 39.7953 60.5293 38.5517L60.5382 38.5429ZM60.5382 43.6144C59.4489 43.9495 58.4305 44.3729 57.3058 44.611C53.4624 45.4224 49.371 45.0608 45.7402 43.6144C45.687 45.1578 45.5099 45.4754 46.8737 46.2515C49.7872 47.9096 56.252 47.8832 59.2187 46.3573C60.6267 45.6341 60.6533 45.1931 60.547 43.6144H60.5382Z" fill="#6C6F00"/>
<path d="M60.0782 -3.02e-05L56.6864 6.75601C56.465 6.80011 56.4385 6.73837 56.3056 6.59725C56.0842 6.3503 55.2164 4.61278 55.0658 4.61278L38.0185 15.1261L25.6469 12.6212L3.968 25.8864C3.39237 26.2656 2.31196 24.043 2.4448 23.8225L25.0536 10.0106C29.2601 10.5574 33.4135 11.9245 37.6199 12.4096L53.7552 2.59302L52.5331 0.299846L60.0871 -0.0088501L60.0782 -3.02e-05Z" fill="#6C6F00"/>
<path d="M30.7562 25.3836C33.59 25.269 40.9138 26.0804 41.4097 29.7319C41.0909 34.7768 41.879 40.4127 41.4274 45.3872C41.0377 49.7618 32.3945 50.2822 29.1621 49.9118C26.8419 49.6384 22.0775 48.4477 21.6967 45.6782C22.0067 40.6332 21.2362 34.9973 21.679 30.0229C21.9978 26.495 27.9489 25.5071 30.7473 25.3925L30.7562 25.3836ZM29.3658 27.9943C27.8249 28.1443 21.7587 29.5643 25.3807 31.4076C28.4271 32.9599 34.573 32.9864 37.6283 31.4606C39.0806 30.7373 39.4614 30.1464 37.9205 29.2115C35.7774 27.8973 31.8189 27.765 29.3658 27.9943ZM38.9566 33.6302C34.3074 35.5706 28.7991 35.5883 24.1586 33.6302C24.1763 34.865 23.8487 35.3854 24.9734 36.1175C27.9046 38.0226 35.494 38.1284 38.3279 36.0028C39.2666 35.2972 38.9035 34.6886 38.9566 33.6302ZM38.9566 38.5429C34.4048 40.6068 28.7105 40.6068 24.1586 38.5429C24.1586 39.716 23.8841 40.3157 24.9379 41.0654C27.6478 43.0058 35.3346 42.997 38.0888 41.1272C39.2135 40.3598 38.9743 39.8042 38.9566 38.5429ZM38.9566 43.6144C34.2631 45.5107 28.8433 45.5018 24.1586 43.6144C24.1941 44.5934 23.9018 45.202 24.7254 45.8899C27.2227 47.9979 36.0431 48.042 38.4873 45.8282C39.1957 45.1843 38.9212 44.4699 38.9566 43.6144Z" fill="#6C6F00"/>
<path d="M8.2451 35.3589C11.2029 35.1296 19.3591 35.7558 19.8462 39.6895C19.9967 40.9419 19.979 44.2494 19.8462 45.5283C19.5274 48.4477 14.7718 49.6207 12.363 49.903C9.13068 50.2822 0.487439 49.7354 0.0977848 45.3784C-0.0261961 44.0465 -0.0439076 41.1536 0.0977848 39.8395C0.460872 36.6643 5.65036 35.5618 8.23624 35.3589H8.2451ZM8.865 37.8197C7.36838 37.9167 5.06588 38.3048 3.75522 39.028C2.60397 39.6631 2.09919 40.1746 3.34786 41.0654C6.102 43.0146 13.8508 43.0058 16.5872 41.0654C17.5791 40.3686 17.5968 40.0423 16.6492 39.3367C14.8869 38.0226 10.9992 37.6786 8.85615 37.8197H8.865ZM17.3754 43.6144C12.7173 45.4313 7.14698 45.6606 2.5774 43.4644C2.50656 45.1226 2.40029 45.59 3.90577 46.3662C6.83703 47.8744 14.2936 48.0331 16.8972 45.837C17.6854 45.1667 17.2957 44.5493 17.3754 43.6232V43.6144Z" fill="#6C6F00"/>
</g>
<defs>
<clipPath id="clip0_58_2753">
<rect width="63" height="50" fill="white"/>
</clipPath>
</defs>
</svg>
