<svg width="41" height="29" viewBox="0 0 41 29" fill="none" xmlns="http://www.w3.org/2000/svg">
<g clip-path="url(#clip0_48_287)">
<path d="M-9.76585e-06 13.66C0.32999 12.81 0.95999 12.24 1.88999 12.14H20.11C21.11 12.25 21 13.54 20.03 13.58H2.03999C1.76999 13.56 1.54999 13.69 1.41999 13.92C1.31999 18.12 1.31999 22.37 1.41999 26.56L1.83999 26.95H38.6C38.79 26.85 39 26.71 39 26.47L38.98 13.96C38.93 13.73 38.77 13.62 38.55 13.59C37.56 13.43 36.21 13.73 35.2 13.57C34.27 13.42 34.33 12.27 35.11 12.15C35.73 12.05 38.14 12.07 38.76 12.18C39.75 12.35 40.37 13.22 40.44 14.19C40.74 18.2 40.21 22.58 40.43 26.63C40.27 27.47 39.74 28.08 38.92 28.33L1.78999 28.37C0.89999 28.28 0.26999 27.66 -0.0100098 26.84V13.68L-9.76585e-06 13.66Z" fill="#9B9F00"/>
<path d="M36.58 0.0299992C39.68 -0.390001 41.63 3.2 39.65 5.58L26.57 18.66C24.45 19.37 22.06 20.92 19.96 21.52C19.22 21.73 18.73 21.45 18.91 20.63L21.84 13.85L34.91 0.779999C35.34 0.439999 36.04 0.109999 36.58 0.0399992V0.0299992ZM36.66 1.48C35.98 1.58 35.68 2.02 35.24 2.46L38.01 5.23C39.87 3.95 39.06 1.13 36.67 1.48H36.66ZM34.23 3.46L33.34 4.35L36.12 7.13L37.01 6.24L34.23 3.46ZM32.34 5.34L23.38 14.3L26.16 17.08L35.12 8.12L32.34 5.34ZM24.88 17.91C24.91 17.79 24.85 17.78 24.8 17.71C24.61 17.44 23.02 15.85 22.75 15.66C22.68 15.61 22.67 15.55 22.55 15.58L20.94 19.51L24.87 17.9L24.88 17.91Z" fill="#9B9F00"/>
</g>
<defs>
<clipPath id="clip0_48_287">
<rect width="40.55" height="28.35" fill="white"/>
</clipPath>
</defs>
</svg>
