<svg width="40" height="38" viewBox="0 0 40 38" fill="none" xmlns="http://www.w3.org/2000/svg">
<g clip-path="url(#clip0_48_508)">
<path d="M24.265 36.82V38H18.0262C18.0262 38 17.3637 37.7855 17.2533 37.7318C15.2381 36.82 15.0173 33.897 16.9496 32.7706C17.0877 32.6902 17.833 32.3416 17.9158 32.3416H24.2374V33.5215H35.1415C35.666 33.5215 36.4665 32.7438 36.4113 32.2075C35.9144 23.036 38.7302 13.5695 30.4486 6.97247C21.0628 -0.536353 6.57006 4.15666 3.89236 15.7149C3.0642 19.2816 3.67151 23.1969 3.47828 26.8172H1.57077e-05C0.138042 22.6605 -0.414063 18.4502 0.662542 14.4008C4.47207 0.160895 22.9676 -4.82711 33.8717 5.44389C41.96 13.06 39.5859 22.6874 39.8896 32.5829C39.8896 34.326 37.626 36.82 35.8316 36.82H24.265Z" fill="#D7DD17"/>
<path d="M34.3962 16.5461V31.0006H29.0131C27.1084 31.0006 25.7833 28.158 25.6729 26.6026C25.5625 25.0472 25.4797 21.0246 25.9214 19.5765C26.2526 18.5038 27.6329 16.5461 28.9027 16.5461H34.3686H34.3962Z" fill="#D7DD17"/>
<path d="M5.54871 31.0006V16.5461H10.9317C12.174 16.5461 13.5266 18.2624 13.9131 19.3083C14.4652 20.8101 14.3824 25.0204 14.272 26.7099C14.1615 28.2653 12.8089 31.0274 10.9317 31.0274H5.54871V31.0006Z" fill="#D7DD17"/>
</g>
<defs>
<clipPath id="clip0_48_508">
<rect width="40" height="38" fill="white"/>
</clipPath>
</defs>
</svg>
