<svg width="22" height="22" viewBox="0 0 22 22" fill="none" xmlns="http://www.w3.org/2000/svg">
<path d="M16.6312 4.36328C15.9625 4.36328 15.4191 4.90665 15.4191 5.5754C15.4191 6.24416 15.9625 6.78753 16.6312 6.78753C17.3 6.78753 17.8434 6.24416 17.8434 5.5754C17.8434 4.90665 17.3 4.36328 16.6312 4.36328Z" fill="#6C6F00"/>
<path d="M11.2309 5.91821C8.41378 5.91821 6.12329 8.20871 6.12329 11.0258C6.12329 13.843 8.41378 16.1335 11.2309 16.1335C14.0481 16.1335 16.3386 13.843 16.3386 11.0258C16.3386 8.20871 14.0481 5.91821 11.2309 5.91821ZM11.2309 14.2944C9.42528 14.2944 7.96238 12.8231 7.96238 11.0258C7.96238 9.22856 9.43364 7.7573 11.2309 7.7573C13.0282 7.7573 14.4995 9.22856 14.4995 11.0258C14.4995 12.8231 13.0282 14.2944 11.2309 14.2944Z" fill="#6C6F00"/>
<path d="M15.2853 21.3916H7.00942C3.57368 21.3916 0.781616 18.5996 0.781616 15.1638V6.88796C0.781616 3.45222 3.57368 0.660156 7.00942 0.660156H15.2853C18.721 0.660156 21.5131 3.45222 21.5131 6.88796V15.1638C21.5131 18.5996 18.721 21.3916 15.2853 21.3916ZM7.00106 2.60791C4.64369 2.60791 2.72101 4.53059 2.72101 6.88796V15.1638C2.72101 17.5212 4.64369 19.4439 7.00106 19.4439H15.2769C17.6343 19.4439 19.557 17.5212 19.557 15.1638V6.88796C19.557 4.53059 17.6343 2.60791 15.2769 2.60791H7.00106Z" fill="#6C6F00"/>
</svg>
