<svg width="54" height="54" viewBox="0 0 54 54" fill="none" xmlns="http://www.w3.org/2000/svg">
<g clip-path="url(#clip0_53_2737)">
<path d="M40.3942 54H40.0779L35.3687 49.2603L30.5833 54H23.306L18.5968 49.2603L13.8114 54H13.4951C13.3923 53.7066 12.6569 53.3332 12.8017 53.0513L16.9242 48.7269L17.389 48.1287C17.4309 47.9001 14.5277 45.2635 14.181 44.8254L9.38028 49.6299C9.15548 49.748 8.42776 48.9212 8.42776 48.7802C8.42776 48.4221 12.7522 44.5891 13.1713 43.8386L9.96321 40.6076L5.16254 45.4121C4.93774 45.5302 4.21002 44.7035 4.21002 44.5625C4.21002 44.2234 8.47348 40.3638 8.95355 39.697L5.74548 36.3899L0.944799 41.1944C0.662854 41.3392 0.289468 40.6038 -0.00390625 40.501V40.1847L4.73581 35.4755L-9.61886e-05 30.6939V23.2071L4.73962 18.6045L-9.61886e-05 13.8191V13.5029C0.293279 13.4 0.666665 12.6646 0.948609 12.8094C2.54502 14.383 4.19097 15.9146 5.8674 17.3929C7.04471 16.4404 8.06199 15.2364 9.17072 14.1849L4.36623 9.38418C4.24812 9.15939 5.07491 8.43167 5.21588 8.43167C6.95708 9.87568 8.4049 11.7121 10.1575 13.1752L13.3885 9.96712L8.58397 5.16644C8.46586 4.94165 9.29264 4.21393 9.43362 4.21393C11.1405 5.66937 12.6417 7.41819 14.2991 8.95745L17.6062 5.74938L12.8017 0.948705C12.6836 0.735342 13.5104 0 13.659 0C13.9981 0 17.8691 4.27489 18.5244 4.74353C19.9608 3.47859 21.3172 2.05743 22.6774 0.693431C22.9022 0.468638 23.0203 0.0723912 23.3632 0.00762012L30.7204 0.0266704L35.3954 4.74353C36.1345 4.33966 40.0246 -0.0914415 40.4208 0.0152402C40.5237 0.0419107 41.3162 0.765822 41.1867 0.952515L36.5994 5.94751L39.8074 9.17844L44.6081 4.37395C44.8329 4.25584 45.5606 5.08262 45.5606 5.22359C44.1052 6.9305 42.3564 8.43167 40.8171 10.089L44.0252 13.3962L48.8258 8.59169C49.0506 8.47358 49.7784 9.30036 49.7784 9.44133C48.3229 11.1482 46.5741 12.6494 45.0348 14.3068L48.1896 17.5644L53.0436 12.8094C53.2684 12.6913 53.9961 13.5181 53.9961 13.6591C52.5406 15.366 50.7918 16.8671 49.2526 18.5245L49.344 18.7226L53.8894 23.249L53.9885 23.4662L53.9694 30.6138L49.2526 35.3955C49.1916 35.746 53.9389 40.1619 53.8742 40.5352C53.8627 40.5962 53.1122 41.4458 52.9369 41.2934C51.3367 39.7428 49.8241 38.0473 48.1515 36.6033C47.8009 37.0147 44.89 39.6742 44.9282 39.9028L49.6602 44.6768C49.6793 44.7911 48.9363 45.6407 48.7192 45.5112L43.9337 40.821L40.7104 44.1205L45.4006 48.8298C45.5301 49.0431 44.6767 49.7899 44.5662 49.7708L39.7922 45.0387L36.4927 48.262L41.08 53.0475C41.2248 53.3294 40.4894 53.7028 40.3866 53.9962L40.3942 54ZM24.0147 1.29161L1.36391 23.8853C1.1353 25.8513 1.32581 27.9049 1.26484 29.9014L1.41344 30.1719L23.8776 52.636C25.8435 52.8646 27.8972 52.6741 29.8936 52.7351L30.1642 52.5865L52.5216 30.1223C52.7502 28.1221 52.5597 26.0342 52.6207 24.0034L52.4721 23.7329L30.1146 1.36781L29.7984 1.26113L24.0147 1.2878V1.29161Z" fill="#6C6F00"/>
<path d="M34.0807 16.227C35.5171 17.0843 36.7135 18.2959 37.6431 19.6752L40.2759 19.096L41.8456 22.6546V22.8756C41.4836 23.1575 39.8072 24.0834 39.7501 24.4225C39.6929 24.7616 39.9482 25.6722 39.9711 26.1027C40.0244 27.181 39.9596 28.2668 39.811 29.3298L41.9751 30.7548C41.7351 31.193 40.6454 34.3668 40.4778 34.4734C40.1311 34.6868 38.2946 34.0124 37.7726 34.0886C36.8849 35.506 35.7228 36.7328 34.3245 37.651L34.8656 40.2952C33.6159 40.7867 32.4005 41.4954 31.1279 41.8573C30.8536 41.503 29.9049 39.8075 29.581 39.758L27.0511 40.0818C26.7197 40.0818 24.7803 39.7732 24.6698 39.8189C24.5022 39.8951 23.4316 41.7583 23.3058 42.0859C22.0142 41.5716 20.6464 41.0991 19.4386 40.459C19.4653 40.0133 20.033 37.9977 19.8844 37.7615C18.4671 36.8928 17.2745 35.7117 16.3525 34.3363L13.7045 34.8735C13.213 33.62 12.5043 32.4084 12.1386 31.1358C12.5196 30.8691 14.1807 29.9356 14.2379 29.5851C14.295 29.2117 14.0436 28.3583 14.0207 27.9087C13.9674 26.8304 14.0322 25.7446 14.1807 24.6816L11.9404 23.1614L13.4035 19.5799L13.5445 19.4504C13.9979 19.477 15.8724 20.0562 16.1315 19.8961C17.0192 18.4788 18.1965 17.3053 19.5644 16.3604L19.0881 13.7315L22.7305 12.1389L22.8639 12.1541C23.0163 12.2455 23.9078 13.9982 24.1974 14.2496C24.487 14.5011 25.4585 14.162 25.8814 14.1391C27.0321 14.082 28.2018 14.1544 29.3448 14.2496C29.7944 13.5219 30.3545 12.817 30.6897 12.036L34.5379 13.6095L34.0769 16.2347L34.0807 16.227ZM37.0373 21.1801C35.9819 19.378 34.3588 18.0102 32.6367 16.8748L33.0025 14.5163C32.9758 14.4325 31.5851 13.7772 31.4327 13.7543C31.2803 13.7315 31.246 13.8267 31.1736 13.9258C30.9793 14.1849 30.0954 15.8041 29.9887 15.827C27.9694 15.3698 25.7976 15.3203 23.7973 15.907L22.3686 13.8648C22.2466 13.8077 20.7417 14.4516 20.6883 14.623C20.6312 15.1069 21.2789 16.7224 21.077 17.0615C21.035 17.1338 19.9035 17.8387 19.6787 18.033C18.5395 19.016 17.6289 20.2238 16.783 21.4545L14.417 21.0963L13.6207 22.7232C13.9407 23.0471 15.6857 23.8738 15.7238 24.1977C15.7581 24.4911 15.4419 25.4626 15.4076 25.8894C15.2895 27.3715 15.4838 28.8612 15.8153 30.3014C15.7467 30.5414 14.0093 31.4254 13.8759 31.7378C13.815 31.875 14.4398 33.4028 14.7103 33.4219C15.0837 33.4485 16.7906 32.8389 16.9926 32.9532C18.1508 34.6982 19.6444 36.2642 21.5113 37.2395L21.0922 39.6856C21.1112 39.7732 22.6162 40.3905 22.7229 40.3676C23.0734 40.299 23.8088 38.4397 24.2164 38.3787C24.5289 38.333 25.7481 38.6683 26.2205 38.6988C26.693 38.7293 27.3293 38.7331 27.8055 38.7026C28.3694 38.6683 29.9315 38.2378 30.2287 38.2721C30.5411 38.3102 31.387 39.9866 31.7223 40.2876C32.0652 40.36 33.0291 39.7123 33.4368 39.6361C33.4558 39.0531 32.8081 37.4872 33.1206 37.0567C33.2349 36.9004 33.9893 36.4737 34.2331 36.2718C35.4523 35.2507 36.4315 34.1115 37.243 32.7399C37.5174 32.5684 39.3043 33.1285 39.7691 33.1094L40.4092 31.4711L40.394 31.3339C40.2987 31.1701 38.6985 30.4195 38.4737 30.1681C38.287 29.9623 38.6909 28.3202 38.7213 27.8896C38.8128 26.5447 38.6185 25.2036 38.3137 23.9005C38.3899 23.5957 39.933 22.807 40.1997 22.506C40.2454 22.4565 40.3063 22.4336 40.2606 22.346C40.0892 22.0717 39.712 20.8525 39.491 20.7839L37.0525 21.1725L37.0373 21.1801Z" fill="#6C6F00"/>
<path d="M35.6008 27.0438C35.6008 31.795 31.7488 35.6469 26.9977 35.6469C22.2465 35.6469 18.3945 31.795 18.3945 27.0438C18.3945 22.2927 22.2465 18.4407 26.9977 18.4407C31.7488 18.4407 35.6008 22.2927 35.6008 27.0438ZM34.2215 26.9981C34.2215 23.009 30.9906 19.778 27.0015 19.778C23.0123 19.778 19.7814 23.009 19.7814 26.9981C19.7814 30.9872 23.0123 34.2182 27.0015 34.2182C30.9906 34.2182 34.2215 30.9872 34.2215 26.9981Z" fill="#6C6F00"/>
</g>
<defs>
<clipPath id="clip0_53_2737">
<rect width="54" height="54" fill="white"/>
</clipPath>
</defs>
</svg>
