<svg width="17" height="17" viewBox="0 0 17 17" fill="none" xmlns="http://www.w3.org/2000/svg">
<path d="M0.275862 5.7874H3.70324V16.7885H0.275862V5.7874ZM1.98955 0.320312C3.08464 0.320312 3.97075 1.20642 3.97075 2.30151C3.97075 3.3966 3.08464 4.2827 1.98955 4.2827C0.894463 4.2827 0 3.3966 0 2.30151C0 1.20642 0.886103 0.320312 1.98955 0.320312Z" fill="#6C6F00"/>
<path d="M5.85156 5.78734H9.12847V7.29204H9.17027C9.63004 6.42266 10.7418 5.51147 12.4054 5.51147C15.8662 5.51147 16.5099 7.78525 16.5099 10.7529V16.7884H13.0909V11.4383C13.0909 10.1593 13.0658 8.52088 11.3103 8.52088C9.5548 8.52088 9.26222 9.90855 9.26222 11.3464V16.7884H5.8432V5.78734H5.85156Z" fill="#6C6F00"/>
</svg>
