<svg width="15" height="19" viewBox="0 0 15 19" fill="none" xmlns="http://www.w3.org/2000/svg">
<g clip-path="url(#clip0_48_410)">
<path d="M8.29361 0C8.80031 0.100529 9.31447 0.17425 9.80628 0.314991C13.3979 1.34709 15.6334 4.72487 14.8286 8.06243C14.0537 11.2928 10.1416 16.4198 7.62297 18.8593C7.57081 18.9062 7.56336 19.0737 7.45158 18.9531C4.57528 15.6624 1.48288 12.2176 0.20866 8.10265L1.60094e-05 7.11076C0.0149191 6.84938 -0.0223387 6.5746 1.60094e-05 6.30653C0.268272 3.13651 3.15948 0.281481 6.73623 0H8.29361ZM6.95233 0.965079C3.64383 1.21305 0.976171 3.88713 1.11775 6.88959C1.24443 9.63069 4.59018 13.9937 6.43817 16.1718C6.72133 16.5069 7.10136 17.0162 7.41432 17.2977C7.45158 17.3312 7.45903 17.3982 7.541 17.3781C8.81522 15.9238 10.0596 14.436 11.155 12.8677C12.3249 11.1721 14.0015 8.51146 13.9195 6.48078C13.778 3.19683 10.5738 0.6903 6.95233 0.965079Z" fill="#9B9F00"/>
<path d="M10.38 6.74211C10.38 8.16963 9.09836 9.32236 7.51863 9.32236C5.9389 9.32236 4.65723 8.16963 4.65723 6.74211C4.65723 5.3146 5.9389 4.16187 7.51863 4.16187C9.09836 4.16187 10.38 5.3146 10.38 6.74211ZM9.2772 6.74211C9.2772 5.87086 8.48733 5.16045 7.51863 5.16045C6.54992 5.16045 5.76006 5.87086 5.76006 6.74211C5.76006 7.61336 6.54992 8.32377 7.51863 8.32377C8.48733 8.32377 9.2772 7.61336 9.2772 6.74211Z" fill="#9B9F00"/>
</g>
<defs>
<clipPath id="clip0_48_410">
<rect width="15" height="19" fill="white"/>
</clipPath>
</defs>
</svg>
