<svg width="40" height="27" viewBox="0 0 40 27" fill="none" xmlns="http://www.w3.org/2000/svg">
<g clip-path="url(#clip0_48_515)">
<path d="M36.0585 27H3.94146C1.89268 26.5808 0.429268 25.1517 0 23.151V10.1179C0.546341 8.63161 2.53659 8.5935 3.02439 10.1179L3.06341 22.5413C3.18049 23.4368 3.72683 23.9132 4.6439 23.9894C15.0439 23.9132 25.4829 24.1418 35.8634 23.8751C36.4878 23.6655 36.7415 23.2272 36.878 22.6175L36.9171 10.175C37.3073 8.49823 39.7659 8.61256 39.961 10.3465V22.9986C39.7268 24.542 38.7707 25.8567 37.3463 26.5617L36.0195 27H36.0585Z" fill="#D7DD17"/>
<path d="M4.01951 0.0190249H35.8049C37.4244 -0.0190838 40.5073 2.26744 39.4927 3.96327C33.5024 8.66969 27.2 13.0331 21.0732 17.6062C20.5658 18.0063 19.9219 18.1397 19.3171 17.8539L0.585361 4.0776C-0.624395 2.40082 2.39999 0.0761879 4.01951 0.0190249ZM35.7659 2.9915H4.23414L20.039 14.5384L35.7659 2.9915Z" fill="#D7DD17"/>
</g>
<defs>
<clipPath id="clip0_48_515">
<rect width="40" height="27" fill="white"/>
</clipPath>
</defs>
</svg>
