<svg width="50" height="50" viewBox="0 0 50 50" fill="none" xmlns="http://www.w3.org/2000/svg">
<g clip-path="url(#clip0_58_2768)">
<path d="M3.91023 0.0294002L45.7958 0C48.0106 0.215602 49.7844 1.97962 50 4.20423V45.8056C49.7844 48.04 48.0302 49.7746 45.7958 50.0098H4.20423C1.98942 49.7942 0.215602 48.0302 0 45.8056V4.09643C0.264602 2.01882 1.85221 0.372403 3.91023 0.0294002ZM4.23363 2.37162C3.13603 2.60682 2.44022 3.39083 2.34222 4.51784V45.4822C2.43042 46.7072 3.38103 47.6676 4.62564 47.6676H45.4822C46.7072 47.6088 47.6676 46.6092 47.6676 45.3842V4.51784C47.599 3.29283 46.6974 2.45002 45.4822 2.33242L4.23363 2.36182V2.37162Z" fill="#6C6F00"/>
<path d="M16.9538 20.9232C15.7386 19.8843 14.4058 18.2967 13.2494 17.1305C12.5438 16.4151 11.8186 15.7389 11.1228 15.0039C10.7014 14.5531 10.1526 14.3767 10.2114 13.5731C10.2702 12.7695 12.2498 11.2799 12.9456 10.7703C20.5309 5.27242 30.9484 5.58603 38.1318 11.6033C38.808 12.1717 39.984 12.9851 39.7586 13.9749C39.6018 14.6707 38.0828 15.7977 37.5438 16.3367C36.1914 17.7087 34.6822 19.5413 33.2416 20.7565C32.9378 21.0114 32.6144 21.2564 32.193 21.2466C31.5168 21.227 30.3799 19.9627 29.6645 19.5413C26.6167 17.7185 22.6477 17.8655 19.7469 19.9235C18.9139 20.5115 18.0514 21.8738 16.944 20.933L16.9538 20.9232ZM23.1671 9.29046C19.5117 9.57466 15.8366 11.3093 13.0828 13.6711L17.826 18.3947L19.6587 17.1795C19.2863 16.0721 17.3752 13.6319 18.6101 12.7205C20.4427 11.3583 21.0797 15.4057 21.8637 16.2681C25.3917 15.3861 29.2725 16.0329 32.0754 18.3947L36.897 13.6711C33.0554 10.2999 28.2533 8.88865 23.1573 9.29046H23.1671Z" fill="#6C6F00"/>
</g>
<defs>
<clipPath id="clip0_58_2768">
<rect width="50" height="50" fill="white"/>
</clipPath>
</defs>
</svg>
