<svg width="29" height="29" viewBox="0 0 29 29" fill="none" xmlns="http://www.w3.org/2000/svg">
<g clip-path="url(#clip0_48_292)">
<path d="M0 1.35C0.25 0.67 0.75 0.13 1.49 0H24.78C25.5 0 26.38 0.9 26.38 1.6V13.19H25.15V1.77C25.15 1.6 24.92 1.31 24.76 1.26L1.77 1.23C1.6 1.17 1.24 1.47 1.24 1.6V16.16H9.6V17.39H1.23V19.33C1.23 19.46 1.64 19.75 1.76 19.75H9.59V20.84L9.08 24.52H13.32C13.32 24.52 13.61 24.69 13.66 24.75C13.95 25.13 13.74 25.68 13.26 25.76C11.2 25.62 8.89 25.95 6.86 25.76C6.28 25.71 6.04 25.03 6.5 24.66C6.83 24.39 7.44 24.57 7.85 24.52L8.3 20.98H1.6C1.51 20.98 1.15 20.85 1.05 20.8C0.49 20.55 0.22 20.12 0 19.57V1.35Z" fill="#9B9F00"/>
<path d="M22.2299 18.64L22.2899 18.78L28.2399 24.73C28.4199 24.96 28.4899 25.29 28.3199 25.54L25.6299 28.24C25.3499 28.43 25.0599 28.37 24.8099 28.16L18.7499 22.13L16.6099 26.41C16.3199 26.91 15.6499 26.81 15.4699 26.28L9.17994 9.94999C8.97994 9.30999 9.54994 8.86999 10.1399 9.15999L26.5799 15.51C26.9199 15.81 26.8799 16.29 26.4999 16.54L22.2399 18.65L22.2299 18.64ZM24.5799 16.11L10.8299 10.78L16.1099 24.53C16.1799 24.53 16.1999 24.45 16.2299 24.4C16.9299 23.28 17.4099 21.81 18.0999 20.66C18.4399 20.31 18.8499 20.39 19.1699 20.71L25.1999 26.75L25.3099 26.81L26.8799 25.19L20.6799 18.98C20.4199 18.7 20.4299 18.26 20.7499 18.03L24.5899 16.11H24.5799Z" fill="#9B9F00"/>
<path d="M3.30003 8.71997C3.74003 8.65997 5.71003 8.64997 6.09003 8.75997C6.77003 8.96997 6.65003 9.88997 5.92003 9.98997C5.47003 10.05 3.62003 10.06 3.20003 9.96997C2.49003 9.81997 2.48003 8.83997 3.30003 8.71997Z" fill="#9B9F00"/>
<path d="M4.57003 4.74001C4.87003 4.42001 5.23003 4.54001 5.53003 4.78001C5.87003 5.05001 7.16003 6.32001 7.37003 6.65001C7.81003 7.34001 7.09003 8.00001 6.37003 7.42001C6.12003 7.22001 4.61003 5.73001 4.50003 5.53001C4.36003 5.29001 4.37003 4.95001 4.57003 4.74001Z" fill="#9B9F00"/>
<path d="M6.72002 11.07C7.35002 10.94 7.71002 11.54 7.34002 12.09C7.18002 12.33 5.68002 13.84 5.44002 14C4.79002 14.43 4.08002 13.81 4.56002 13.12C4.78002 12.79 6.07002 11.51 6.40002 11.26C6.49002 11.19 6.61002 11.1 6.72002 11.08V11.07Z" fill="#9B9F00"/>
<path d="M13.84 4.73998C14.01 4.91998 14.02 5.25998 13.92 5.47998C13.32 6.06998 12.68 6.89998 12.04 7.40998C11.31 7.99998 10.6 7.28998 11.03 6.62998C11.21 6.35998 12.58 5.00998 12.88 4.76998C13.18 4.52998 13.54 4.41998 13.84 4.72998V4.73998Z" fill="#9B9F00"/>
<path d="M9.07996 2.82003C9.50996 2.74003 9.78996 3.05003 9.82996 3.45003C9.87996 3.98003 9.89996 5.70003 9.80996 6.19003C9.68996 6.86003 8.65996 6.87003 8.58996 6.09003C8.52996 5.49003 8.51996 3.92003 8.58996 3.34003C8.62996 3.08003 8.81996 2.86003 9.07996 2.81003V2.82003Z" fill="#9B9F00"/>
</g>
<defs>
<clipPath id="clip0_48_292">
<rect width="28.41" height="28.35" fill="white"/>
</clipPath>
</defs>
</svg>
