<?xml version="1.0" standalone="no"?>
<!DOCTYPE svg PUBLIC "-//W3C//DTD SVG 20010904//EN"
 "http://www.w3.org/TR/2001/REC-SVG-20010904/DTD/svg10.dtd">
<svg version="1.0" xmlns="http://www.w3.org/2000/svg"
 width="200.000000pt" height="200.000000pt" viewBox="0 0 200.000000 200.000000"
 preserveAspectRatio="xMidYMid meet">

<g transform="translate(0.000000,200.000000) scale(0.100000,-0.100000)"
fill="#000000" stroke="none">
<path d="M585 1836 l-30 -13 50 -5 c28 -2 62 -12 77 -22 14 -9 161 -193 325
-409 164 -215 311 -406 327 -425 58 -66 119 -77 165 -28 22 23 22 25 19 413
l-3 390 -29 37 c-32 43 -95 75 -144 76 -40 0 -99 -24 -130 -53 -49 -45 -52
-63 -52 -277 0 -130 -4 -200 -10 -198 -5 2 -92 111 -193 243 -152 200 -190
244 -227 263 -49 25 -100 28 -145 8z m833 -90 l37 -34 3 -344 c2 -188 1 -352
-2 -364 -8 -31 -31 -36 -58 -14 l-23 18 -5 344 -5 343 -25 0 -25 0 -3 -287
c-1 -159 -6 -288 -10 -288 -4 0 -24 22 -45 50 l-37 49 0 232 c0 253 6 285 59
314 47 26 97 19 139 -19z"/>
<path d="M540 1709 c-28 -12 -70 -48 -70 -61 0 -5 9 -4 19 2 39 20 98 12 134
-19 18 -17 174 -214 345 -439 172 -226 326 -424 344 -440 52 -52 121 -54 178
-5 34 28 41 49 11 33 -30 -16 -93 -12 -124 8 -16 9 -178 212 -360 451 -183
239 -343 443 -357 453 -32 23 -87 31 -120 17z"/>
<path d="M525 1521 c-11 -5 -29 -19 -40 -31 -19 -21 -20 -38 -23 -376 -2 -231
1 -368 8 -394 13 -49 63 -108 107 -126 60 -26 147 -11 196 34 47 42 52 67 57
285 l5 207 183 -239 c100 -132 198 -252 218 -267 44 -34 114 -43 164 -21 l35
15 -46 1 c-30 1 -58 9 -80 24 -19 13 -171 202 -351 437 -174 228 -327 423
-340 432 -30 22 -68 29 -93 19z m67 -88 c17 -15 18 -39 18 -348 0 -353 1 -362
47 -353 17 3 18 24 23 292 l5 289 38 -46 37 -45 0 -252 0 -252 -34 -34 c-28
-28 -42 -34 -75 -34 -23 0 -53 7 -67 16 -53 35 -54 45 -54 422 0 192 3 352 7
355 11 12 36 8 55 -10z"/>
<path d="M460 420 c0 -47 4 -80 10 -80 6 0 10 26 10 58 l1 57 35 -57 c20 -32
40 -58 45 -58 5 0 9 36 9 80 0 47 -4 80 -10 80 -6 0 -10 -28 -10 -62 l-1 -63
-35 63 c-20 34 -40 62 -45 62 -5 0 -9 -36 -9 -80z"/>
<path d="M600 420 l0 -80 50 0 c28 0 50 5 50 10 0 6 -18 10 -40 10 -36 0 -40
3 -40 25 0 22 4 25 35 25 19 0 35 5 35 10 0 6 -16 10 -35 10 -31 0 -35 3 -35
25 0 23 4 25 40 25 22 0 40 5 40 10 0 6 -22 10 -50 10 l-50 0 0 -80z"/>
<path d="M741 433 c-12 -38 -25 -74 -28 -80 -2 -7 0 -13 6 -13 6 0 13 11 17
25 9 37 60 36 75 -2 6 -16 13 -23 15 -18 6 15 -40 148 -52 152 -6 2 -20 -27
-33 -64z m48 -10 c1 -7 -8 -13 -18 -13 -18 0 -19 3 -9 32 10 28 12 30 19 12 4
-10 8 -25 8 -31z"/>
<path d="M850 420 c0 -47 4 -80 10 -80 6 0 10 16 10 35 0 24 5 35 14 35 8 0
24 -16 36 -35 12 -19 26 -35 32 -35 5 0 0 15 -12 34 l-21 35 21 11 c22 12 27
49 8 68 -7 7 -31 12 -55 12 l-43 0 0 -80z m90 35 c0 -22 -4 -25 -35 -25 -31 0
-35 3 -35 25 0 22 4 25 35 25 31 0 35 -3 35 -25z"/>
<path d="M1057 493 c-4 -3 -7 -39 -7 -80 l0 -73 50 0 c28 0 50 5 50 10 0 6
-18 10 -40 10 -36 0 -40 3 -40 25 0 23 4 25 41 25 24 0 38 4 34 10 -3 6 -22
10 -41 10 -30 0 -34 3 -34 25 0 23 4 25 40 25 22 0 40 5 40 10 0 11 -83 14
-93 3z"/>
<path d="M1217 493 c-13 -23 -48 -145 -43 -150 3 -3 10 6 15 21 15 37 66 38
75 1 4 -14 11 -25 17 -25 6 0 8 6 6 13 -3 6 -16 42 -28 80 -21 63 -32 78 -42
60z m16 -81 c-21 -5 -25 2 -17 34 l7 29 13 -30 c10 -25 10 -31 -3 -33z"/>
<path d="M1315 484 c-25 -25 -14 -47 33 -69 32 -15 42 -25 40 -40 -4 -27 -47
-33 -65 -9 -7 10 -16 14 -20 10 -9 -9 33 -46 51 -46 6 0 22 7 34 16 35 24 25
55 -26 79 -27 12 -41 25 -40 35 4 19 45 25 64 9 21 -17 28 -5 9 15 -21 21 -59
21 -80 0z"/>
<path d="M1420 490 c0 -5 9 -10 20 -10 18 0 20 -7 20 -70 0 -40 4 -70 10 -70
6 0 10 30 10 70 0 63 2 70 20 70 11 0 20 5 20 10 0 6 -22 10 -50 10 -27 0 -50
-4 -50 -10z"/>
<path d="M475 281 c16 -6 21 -20 26 -72 l6 -64 1 67 c2 60 4 67 25 71 12 2 0
5 -28 5 -34 0 -43 -2 -30 -7z"/>
<path d="M681 276 c-7 -8 -11 -37 -9 -68 3 -50 5 -53 32 -56 16 -2 33 1 38 6
7 7 -1 10 -23 9 -33 -2 -34 -1 -37 44 -4 55 14 77 47 59 12 -6 21 -7 21 -1 0
22 -52 27 -69 7z"/>
<path d="M892 218 l1 -73 6 55 6 55 30 -52 c17 -29 33 -53 38 -53 4 0 6 33 5
73 l-1 72 -6 -55 -6 -55 -30 52 c-17 29 -33 53 -37 53 -5 0 -7 -33 -6 -72z"/>
<path d="M1021 276 c-7 -8 -11 -37 -9 -68 3 -50 5 -53 31 -56 16 -2 35 2 43 9
17 14 19 100 2 117 -16 16 -53 15 -67 -2z m53 -12 c33 -32 10 -110 -30 -103
-35 7 -29 119 7 119 4 0 15 -7 23 -16z"/>
<path d="M1122 223 l-2 -73 38 1 c36 1 36 2 7 8 -29 6 -30 9 -36 71 l-6 65 -1
-72z"/>
<path d="M1221 276 c-7 -8 -11 -37 -9 -68 3 -50 5 -53 31 -56 16 -2 35 2 43 9
17 14 19 100 2 117 -16 16 -53 15 -67 -2z m53 -12 c33 -32 10 -110 -30 -103
-35 7 -29 119 7 119 4 0 15 -7 23 -16z"/>
<path d="M1331 276 c-7 -8 -11 -36 -9 -68 l3 -53 43 -1 c41 -1 42 -1 42 32 0
29 -4 34 -22 34 -21 -1 -21 -2 -5 -11 24 -14 4 -51 -26 -47 -18 2 -22 10 -25
49 -4 56 14 77 49 59 17 -10 20 -9 17 2 -6 19 -52 22 -67 4z"/>
<path d="M1449 254 c12 -19 22 -52 22 -72 l1 -37 7 36 c4 20 17 53 29 73 12
20 17 36 11 36 -5 0 -15 -11 -21 -25 -6 -14 -15 -25 -20 -25 -5 0 -14 11 -20
25 -6 14 -15 25 -21 25 -5 0 0 -16 12 -36z"/>
<path d="M570 215 l0 -65 43 2 42 1 -37 4 c-32 4 -38 8 -38 28 0 19 6 24 33
28 l32 4 -32 1 c-28 2 -33 6 -33 26 0 21 5 25 38 29 l37 4 -42 1 -43 2 0 -65z"/>
<path d="M783 215 c0 -38 2 -55 4 -37 4 28 8 32 33 32 25 0 29 -4 33 -32 2
-18 4 -1 4 37 0 39 -2 55 -4 38 -4 -29 -8 -33 -33 -33 -25 0 -29 4 -33 33 -2
17 -4 1 -4 -38z"/>
</g>
</svg>
