<svg width="33" height="24" viewBox="0 0 33 24" fill="none" xmlns="http://www.w3.org/2000/svg">
<g clip-path="url(#clip0_48_224)">
<path d="M26.3495 0V20.4529C26.3495 20.6984 26.6618 21.5196 26.8052 21.7481C27.6155 23.0095 29.8183 22.7556 30.7889 21.8074C31.1011 21.5026 31.5907 20.6138 31.5907 20.1905V3.91111H33.0001V20.2582C33.0001 22.0614 30.9155 23.9746 29.1346 24H3.93311C1.65434 23.8138 0.0338793 21.9937 0.000119672 19.7164V0.228571C-0.0167601 0.160847 0.0423192 0 0.101398 0H26.341H26.3495ZM24.9316 1.41376H1.41802V20.0466C1.41802 21.0963 2.73465 22.5778 3.80651 22.5778H25.6827C25.4886 22.2815 25.3198 21.9429 25.2101 21.6042C25.1341 21.3587 24.94 20.6815 24.94 20.4529V1.41376H24.9316Z" fill="#9B9F00"/>
<path d="M29.5734 3.97882H28.1639V21.0963H29.5734V3.97882Z" fill="#9B9F00"/>
<path d="M22.1125 4.98627H3.83167V6.40002H22.1125V4.98627Z" fill="#9B9F00"/>
<path d="M22.1125 9.10052H3.83167V10.5143H22.1125V9.10052Z" fill="#9B9F00"/>
<path d="M14.179 13.2064H3.83167V14.6201H14.179V13.2064Z" fill="#9B9F00"/>
<path d="M14.179 17.3206H3.83167V18.7344H14.179V17.3206Z" fill="#9B9F00"/>
</g>
<defs>
<clipPath id="clip0_48_224">
<rect width="33" height="24" fill="white"/>
</clipPath>
</defs>
</svg>
