<svg width="26" height="26" viewBox="0 0 26 26" fill="none" xmlns="http://www.w3.org/2000/svg">
<g clip-path="url(#clip0_48_217)">
<path d="M19.782 26.0001H17.3242L15.3891 25.7155C7.81377 24.3476 1.67832 18.1965 0.311833 10.6131L0.0275294 8.67597C0.0825558 7.88642 -0.0550103 6.99589 0.0275294 6.21552C0.302662 3.46128 2.58626 0.964106 5.20919 0.229643C6.65822 -0.174312 7.57532 -0.165131 8.29984 1.28543C9.31783 3.32357 10.079 5.64631 11.0145 7.73035C11.0603 8.14349 11.0603 8.5658 10.8677 8.94221L8.51077 12.6329C9.11607 14.0835 10.2624 15.4514 11.5005 16.4062C11.8307 16.6633 13.0871 17.5446 13.4448 17.5079L17.0766 15.1576C17.9845 14.7537 18.5623 15.0842 19.3877 15.4147C21.066 16.0849 23.0653 16.8928 24.6702 17.6915C26.0734 18.3892 26.1834 19.188 25.8166 20.6477C25.1379 23.3469 22.5975 25.7155 19.7912 26.0001H19.782ZM6.70407 1.72611C6.54816 1.55168 5.64023 1.81792 5.41095 1.89137C3.09984 2.63501 1.61413 4.91185 1.61413 7.31721C1.61413 13.349 5.1725 19.2431 10.3908 22.1625C14.2886 24.3384 22.2032 26.3582 24.1016 20.6569C24.1841 20.4182 24.4593 19.4634 24.285 19.3073L17.9662 16.6265L17.7002 16.6908C16.5813 17.3151 15.4441 18.3892 14.3161 18.9401C13.3072 19.4359 12.6194 19.0411 11.7482 18.5361C10.0332 17.5446 8.41906 15.9472 7.44693 14.212C6.94252 13.3123 6.60319 12.6696 7.11677 11.6689C7.67621 10.5764 8.69419 9.44716 9.30866 8.35464L9.38203 8.0425L6.70407 1.72611Z" fill="#9B9F00"/>
<path d="M16.3887 1.0558C16.8472 0.945628 17.746 1.2945 18.1954 1.47811C20.9742 2.57063 23.4412 5.03108 24.5326 7.82204C24.661 8.14337 24.9361 8.86865 24.9636 9.1808C25.0553 10.1356 24.0282 10.5579 23.5054 9.84181C23.2945 9.54803 23.0469 8.53814 22.8543 8.10664C21.8638 5.88489 19.9746 4.02119 17.7368 3.07557C17.104 2.80933 15.7284 2.66244 15.8292 1.76272C15.8567 1.50566 16.1319 1.12006 16.3978 1.06498L16.3887 1.0558Z" fill="#9B9F00"/>
<path d="M15.5266 5.10452C15.7559 5.09534 16.2053 5.26977 16.4437 5.3524C18.3238 6.0226 19.9838 7.68432 20.6532 9.56638C20.855 10.1356 21.1485 11.0812 20.2681 11.2465C19.2868 11.4301 19.3051 10.5854 19.0208 9.93361C18.4338 8.58404 17.4159 7.57415 16.0677 6.9774C15.5816 6.76624 14.8388 6.74788 14.7471 6.10522C14.6737 5.58192 14.9855 5.12288 15.5266 5.09534V5.10452Z" fill="#9B9F00"/>
</g>
<defs>
<clipPath id="clip0_48_217">
<rect width="26" height="26" fill="white"/>
</clipPath>
</defs>
</svg>
