<svg width="46" height="50" viewBox="0 0 46 50" fill="none" xmlns="http://www.w3.org/2000/svg">
<g clip-path="url(#clip0_58_2800)">
<path d="M13.6667 16.3001C14.9792 16.0303 14.9896 18.1158 15.2188 18.9355C16.1354 22.2038 17.5938 25.9805 20.7083 27.7651C26.2813 30.9608 29.5208 23.4281 30.6563 19.2779C30.8438 18.6035 30.9063 17.8357 31.0833 17.1924C31.4479 15.8747 33.0417 16.0199 32.9896 17.4829C32.8438 21.6435 28.9479 29.9129 24.1979 30.3486C17.8125 30.9401 14.2917 23.9677 13.1771 18.6865C13.0208 17.9394 12.5208 16.5387 13.6667 16.3001Z" fill="#6C6F00"/>
<path d="M21.0212 0.0726258C23.5212 -0.166013 26.0942 0.15563 28.2296 1.52521C30.365 2.89479 31.2504 4.60676 34.2087 5.06329C34.99 5.1878 36.5317 4.8869 36.6671 5.92446C36.9379 7.95808 36.4483 10.5831 36.6671 12.6894C36.4692 13.924 35.0108 13.1666 34.365 13.4779C34.2921 13.509 33.5108 14.474 33.2817 14.6815C28.6046 18.8213 17.1671 18.6034 12.5525 14.3909C12.3025 14.1627 11.9796 13.5713 11.7504 13.4779C10.9483 13.1459 9.35458 13.9655 9.10458 12.679C9.32333 10.5831 8.83374 7.95808 9.10458 5.91409C9.25041 4.85578 10.8858 5.16704 11.6775 5.05291C15.7192 4.48225 16.1983 0.539528 21.0212 0.0726258ZM34.8233 7.0139C33.0421 6.9724 31.3442 6.37061 29.8962 5.34343C26.5108 2.94667 26.2817 1.66009 21.4379 1.97136C17.5942 2.22037 17.3129 4.86615 14.4587 6.22535C13.3962 6.73376 12.115 6.96202 10.9379 7.00352V11.5792H34.8233V7.00352V7.0139ZM31.7296 13.426H14.5004L16.1775 14.4428C20.2817 16.2897 27.0108 16.2378 30.9483 13.9759L31.7192 13.426H31.7296Z" fill="#6C6F00"/>
<path d="M22.7396 3.48621C23.1666 3.43434 25.4166 4.33701 25.5729 4.73129C25.6875 5.01143 25.6771 7.1073 25.6354 7.5327C25.5 8.69477 23.5833 10.2511 22.4479 9.89833C21.6354 9.64932 20.2291 8.52876 20.1146 7.64683C20.0625 7.24218 20.0625 5.01143 20.1771 4.73129C20.3125 4.39927 22.3437 3.53809 22.7291 3.48621H22.7396ZM22.7396 5.55096C21.875 5.64434 21.8646 6.215 21.9583 6.96204C22.0521 7.70908 22.8437 8.19674 23.4896 7.5742C23.8646 7.21105 23.8646 6.66115 23.8021 6.15274C23.75 5.68584 23.1562 5.50946 22.7396 5.55096Z" fill="#6C6F00"/>
<path d="M45.6979 49.6369C45.3229 49.9793 44.7187 49.9585 44.3437 49.6265C43.7708 49.1077 44.0625 47.0119 44.0104 46.1922C43.9062 44.5943 43.3646 40.081 42 39.1575C41.6562 38.9189 41.2187 38.8566 40.8229 38.7321C37.5729 37.7361 34.1354 37.0928 30.8541 36.1797L30.5208 36.3042L25.8854 42.6749L26.6771 48.8276C26.7187 49.3464 26.4166 49.7925 25.8958 49.8859C24.9687 50.0519 21.5208 50.0312 20.5208 49.917C19.6771 49.8236 19.5208 49.3567 19.5416 48.5993C19.6041 46.6591 20.2395 44.5321 20.2083 42.5711L15.6875 36.1901L4.46872 38.9708C2.7708 39.6348 2.22913 43.7954 2.0833 45.4036C1.97913 46.5138 2.12497 48.0494 1.9583 49.0558C1.8333 49.8444 0.885385 50.2283 0.291635 49.585C-0.395865 48.8276 0.291635 46.545 0.124968 45.5178C0.427052 43.121 0.843718 38.701 3.23955 37.4144C7.46872 36.1279 11.8437 35.2252 16.1354 34.1461L16.7396 34.4055C17.9896 35.91 19.0208 37.9436 20.2916 39.3962C20.4062 39.5311 20.4687 39.6763 20.6875 39.6348C20.6041 38.6387 21.0208 37.5908 20.9166 36.6051C20.8229 35.6713 19.7604 33.4717 20.2396 32.7247C20.3854 32.4964 20.8229 32.3408 21.0833 32.3096C21.8437 32.2163 24.375 32.2059 25.0937 32.3096C25.4791 32.3719 25.9166 32.7765 25.9583 33.1708C26.0416 34.0112 25.0625 35.8581 25.0416 36.823C25.0312 37.3107 25.2708 38.9293 25.3854 39.448C25.4166 39.6037 25.375 39.7386 25.5625 39.8423C26.6458 38.369 27.7291 36.8956 28.8125 35.4223C29.2291 34.862 29.3854 34.1357 30.1666 34.0527C33.9687 35.1318 38.0833 35.8166 41.8333 37.0202C45.3333 38.1407 45.8125 43.4634 45.9479 46.6487C45.9687 47.2712 46.0833 49.2841 45.677 49.6473L45.6979 49.6369ZM21.625 47.9664H24.6145L23.125 36.9268C22.9479 36.6466 23.875 34.2706 23.6458 34.2395H22.3229C22.5312 35.2148 22.9895 36.1486 22.8958 37.1654L21.625 47.9664Z" fill="#6C6F00"/>
<path d="M34.6772 40.3196C35.5001 40.1328 36.2605 40.9836 37.0626 41.2223C37.5626 41.3675 38.4063 41.2949 38.7188 41.7411C39.1251 42.3117 38.7501 42.9446 38.7188 43.5568C38.6563 45.4244 39.073 46.4412 37.4584 47.79C37.0209 48.1532 35.5209 49.087 34.9897 49.087C34.323 49.087 32.5313 47.8523 32.0626 47.3335C30.9688 46.1092 31.3959 45.6111 31.3855 44.2416C31.3855 43.5464 30.8126 42.0108 31.448 41.5647C31.7918 41.326 32.7918 41.243 33.323 41.0355C33.7293 40.8799 34.3647 40.3819 34.6668 40.3196H34.6772ZM33.2188 43.0484C33.3022 43.8058 33.073 44.8745 33.2397 45.5904C33.3438 46.0469 34.6668 47.0845 35.0834 47.0222C35.4168 46.9704 36.5001 46.1299 36.6668 45.8498C36.8334 45.5696 36.8543 43.2559 36.6668 43.1003C36.5938 43.038 35.0938 42.3947 35.0001 42.3947C34.6772 42.3947 33.7188 43.1729 33.2293 43.0484H33.2188Z" fill="#6C6F00"/>
</g>
<defs>
<clipPath id="clip0_58_2800">
<rect width="46" height="50" fill="white"/>
</clipPath>
</defs>
</svg>
