<svg width="48" height="50" viewBox="0 0 48 50" fill="none" xmlns="http://www.w3.org/2000/svg">
<g clip-path="url(#clip0_53_2722)">
<path d="M44.3455 38.3422H47.2797C47.4905 38.3422 47.9824 38.9242 47.9122 39.2064C47.6838 42.3633 48.1933 45.9083 47.9122 49.0124C47.8594 49.612 47.7013 49.7707 47.1391 49.9647L1.31772 50C0.667643 50.0353 0.0527086 49.7178 0 49.0124L0.0351391 38.9947C0.281113 37.9013 2.28404 38.4656 3.10981 38.3422C3.35578 26.702 14.7584 18.7125 25.8272 22.3986C32.5915 24.6561 37.3529 31.1817 37.5813 38.3422H42.5183V25.1323C42.5183 25.0088 40.8843 23.5803 40.7262 23.2452C38.3368 24.4974 36.7379 23.0688 35.0512 21.552C34.4012 20.97 33.6632 20.4409 33.3119 19.612C32.0469 16.702 34.7526 13.8095 37.7394 14.9383C38.4246 15.2028 41.0776 17.4074 41.552 18.0423C42.1142 18.7831 42.3953 19.7002 42.2899 20.6349C42.2548 20.9171 41.9736 21.605 42.0264 21.746C42.2372 22.3281 43.9766 23.6861 44.3807 24.3386V38.3598L44.3455 38.3422ZM36.0527 16.5609C34.9283 16.7901 34.5066 18.2011 35.1567 19.1358C35.3851 19.4533 37.7394 21.4109 38.1083 21.605C39.6545 22.381 41.1479 20.6878 40.1113 19.2593C39.8477 18.9065 37.6867 17.0371 37.2826 16.7901C36.8785 16.5432 36.5622 16.4727 36.0703 16.5609H36.0527ZM35.6135 38.2187C35.2445 28.1482 25.5286 21.0759 15.8302 23.9506C9.66325 25.7848 5.00732 31.7108 4.93704 38.2187H35.6135ZM46.0673 40.1764H1.8448V48.0247H46.0849V40.1764H46.0673Z" fill="#6C6F00"/>
<path d="M30.0615 10.0882C30.0615 15.6614 25.5637 20.1764 20.0117 20.1764C14.4597 20.1764 9.96191 15.6614 9.96191 10.0882C9.96191 4.51499 14.4773 0 20.0117 0C25.5461 0 30.0615 4.51499 30.0615 10.0882ZM28.1815 10.0882C28.1815 5.55555 24.5271 1.88713 20.0117 1.88713C15.4963 1.88713 11.8419 5.55555 11.8419 10.0882C11.8419 14.6208 15.4963 18.2892 20.0117 18.2892C24.5271 18.2892 28.1815 14.6208 28.1815 10.0882Z" fill="#6C6F00"/>
</g>
<defs>
<clipPath id="clip0_53_2722">
<rect width="48" height="50" fill="white"/>
</clipPath>
</defs>
</svg>
