<svg width="29" height="24" viewBox="0 0 29 24" fill="none" xmlns="http://www.w3.org/2000/svg">
<g clip-path="url(#clip0_48_389)">
<path d="M19.9824 4.48682H27.3211C28.1 4.48682 28.9394 5.31645 29 6.06989V22.2985C28.974 23.2212 28.2038 23.9577 27.2605 24H1.6789C0.813489 23.9408 0.0951955 23.2551 0 22.417V6.06989C0.0519248 5.32491 0.925992 4.48682 1.6789 4.48682H8.13489V3.25084C8.13489 1.76936 9.80513 0.330206 11.2331 0.118566C12.4014 -0.0507464 16.339 -0.0676777 17.3948 0.24555C18.7362 0.643433 19.9737 2.07412 19.9737 3.47941V4.48682H19.9824ZM18.9785 4.48682V3.19158C18.9785 2.17571 17.5765 1.11751 16.59 1.03285C15.2919 0.922799 12.8168 0.922799 11.5187 1.03285C10.359 1.12597 9.07819 2.23497 9.07819 3.42015V4.48682H9.96091V3.3101C9.96091 3.17465 10.2378 2.65825 10.3417 2.53126C10.6792 2.10798 11.2071 1.87941 11.7523 1.83708C12.9552 1.74396 15.1534 1.7355 16.3563 1.83708C17.1525 1.90481 18.1477 2.58206 18.1477 3.42015V4.48682H18.9699H18.9785ZM17.2131 4.48682V3.59793C17.2131 3.49634 17.0313 3.13232 16.9534 3.04767C16.8063 2.89529 16.6332 2.83603 16.4255 2.81909C14.8851 2.67518 13.1024 2.92915 11.536 2.81909C11.3196 2.86142 10.9129 3.26777 10.9129 3.47941V4.48682H17.2217H17.2131ZM28.0567 12.4868V6.12915C28.0567 5.92597 27.6932 5.54502 27.4682 5.49423H1.53178C1.30677 5.54502 0.943301 5.92597 0.943301 6.12915V12.4868H11.7869C11.7437 11.8096 12.2543 11.1323 12.886 10.8868C13.3793 10.6921 14.9543 10.7175 15.5342 10.7598C16.4688 10.8276 17.2304 11.5556 17.2131 12.4868H28.0567ZM13.4226 11.6911C13.1024 11.7418 12.7822 12.0297 12.7302 12.3429C12.6697 12.7239 12.6783 14.0191 12.7302 14.4085C12.7562 14.6455 12.9985 14.9842 13.2149 15.0858C13.5783 15.2466 15.4563 15.2466 15.8111 15.0688C15.9842 14.9842 16.2265 14.6625 16.2525 14.4678C16.313 14.0868 16.3044 12.7916 16.2525 12.4022C16.2092 12.0297 15.8803 11.7418 15.5082 11.6911C15.1101 11.6403 13.7947 11.6318 13.4053 11.6995L13.4226 11.6911ZM11.735 13.4096H0.943301V22.417C0.943301 22.6794 1.54909 23.145 1.85198 23.0773C10.3677 23.0434 18.8833 23.1281 27.3903 23.035C27.6153 23.035 28.048 22.5778 28.048 22.4085V13.4011H17.265V14.29C17.265 16.2286 14.9457 16.2286 13.5264 16.1016C12.5658 16.017 11.7264 15.272 11.7264 14.29V13.4011L11.735 13.4096Z" fill="#9B9F00"/>
</g>
<defs>
<clipPath id="clip0_48_389">
<rect width="29" height="24" fill="white"/>
</clipPath>
</defs>
</svg>
