<svg width="62" height="50" viewBox="0 0 62 50" fill="none" xmlns="http://www.w3.org/2000/svg">
<g clip-path="url(#clip0_53_2726)">
<path d="M35.8791 20.2487H41.031C41.8058 20.5779 41.9449 21.8056 41.1982 22.2215C40.4516 22.6373 36.9764 22.1801 35.8778 22.3201C34.9906 21.8469 34.9893 20.7206 35.8778 20.2474L35.8791 20.2487Z" fill="#6C6F00"/>
<path d="M11.3098 30.8843H16.4616C17.2364 31.2135 17.3756 32.4411 16.6289 32.857C15.8822 33.2729 12.4071 32.8157 11.3085 32.9557C10.4213 32.4825 10.4199 31.3561 11.3085 30.8829L11.3098 30.8843Z" fill="#6C6F00"/>
<path d="M0 48.4045C0.179311 48.3685 0.545961 47.8726 0.600824 47.8726H3.20484V16.9643C3.20484 16.9177 3.4805 16.3192 3.54473 16.2392L30.2205 0.255918C30.7317 -0.0866486 31.3593 -0.0866486 31.8705 0.255918C40.8039 5.68899 49.8979 10.8875 58.7523 16.4325V47.8726H61.3564C61.3938 47.8726 61.8608 48.3431 61.8876 48.4071C62.1766 49.0856 61.8729 49.5335 61.4233 50H0V48.4045ZM56.6153 47.8726V17.7615L30.9324 2.43395L5.34051 17.7615V47.8726H8.54536V35.7082C8.54536 35.6535 9.19168 34.9951 9.40578 35.103C12.2319 35.3283 15.4582 34.8271 18.2335 35.103C18.4971 35.1297 19.2264 35.4416 19.2264 35.7095V47.874H23.4991V25.074C23.4991 25.0193 24.1454 24.3608 24.3595 24.4688L52.8712 24.5448C52.9649 24.6368 53.4078 25.0367 53.4078 25.074V47.874H56.6127L56.6153 47.8726ZM51.2735 26.6029H25.6361V47.874H51.2735V26.6029ZM17.0907 37.2384H10.681V47.874H17.0907V37.2384Z" fill="#6C6F00"/>
<path d="M30.538 30.8843L46.4632 30.9269C47.2233 31.4201 47.23 32.4158 46.4632 32.9157L30.7695 32.9917C29.6856 32.849 29.5732 31.3241 30.5367 30.8856L30.538 30.8843Z" fill="#6C6F00"/>
<path d="M30.538 36.2014L46.4632 36.244C47.2233 36.7372 47.23 37.7329 46.4632 38.2328L30.7695 38.3088C29.6856 38.1661 29.5732 36.6413 30.5367 36.2027L30.538 36.2014Z" fill="#6C6F00"/>
<path d="M30.538 41.5198L46.4632 41.5625C47.2233 42.0556 47.23 43.0514 46.4632 43.5512L30.7695 43.6272C29.6856 43.4846 29.5732 41.9597 30.5367 41.5211L30.538 41.5198Z" fill="#6C6F00"/>
</g>
<defs>
<clipPath id="clip0_53_2726">
<rect width="62" height="50" fill="white"/>
</clipPath>
</defs>
</svg>
