<svg width="54" height="54" viewBox="0 0 54 54" fill="none" xmlns="http://www.w3.org/2000/svg">
<path d="M32.4271 40.505C32.4271 43.5028 29.9957 45.9391 27.0041 45.9391C24.0124 45.9391 21.5811 43.5028 21.5811 40.505C21.5811 37.5072 24.0124 35.0709 27.0041 35.0709C29.9957 35.0709 32.4271 37.5072 32.4271 40.505ZM30.526 40.505C30.526 38.5499 28.9451 36.9658 26.9941 36.9658C25.043 36.9658 23.4621 38.5499 23.4621 40.505C23.4621 42.4601 25.043 44.0442 26.9941 44.0442C28.9451 44.0442 30.526 42.4601 30.526 40.505Z" fill="#6C6F00"/>
<path d="M19.8105 39.6027H18.0195V41.3973H19.8105V39.6027Z" fill="#6C6F00"/>
<path d="M35.9697 39.6027H34.1787V41.3973H35.9697V39.6027Z" fill="#6C6F00"/>
<path d="M53.0294 31.5217V53.2681C53.0294 53.5889 52.7492 53.8095 52.4991 53.9699L1.71086 54C1.39068 54 1.17056 53.7193 1.01047 53.4686L0.990457 31.5819C0.980451 31.5117 0.180007 31.5317 0.0799509 30.7898C-0.150177 29.0353 0.260051 26.7594 0.0799509 24.9447C0.129979 24.694 0.390123 24.4734 0.610246 24.3431L53.2995 24.3231C53.5397 24.3732 53.8698 24.704 53.9199 24.9447C53.7398 26.7594 54.16 29.0353 53.9199 30.7898C53.8598 31.231 53.4796 31.5618 53.0194 31.5217H53.0294ZM52.1189 26.1177H1.87095V29.717H52.1189V26.1177ZM2.77145 31.5117V52.1953H51.2284V31.5117H2.77145Z" fill="#6C6F00"/>
<path d="M32.4271 5.43409C32.4271 8.44189 29.9957 10.8682 27.0041 10.8682C24.0124 10.8682 21.5811 8.43186 21.5811 5.43409C21.5811 2.43632 24.0024 0 26.9941 0C29.9857 0 32.4171 2.43632 32.4171 5.43409H32.4271ZM30.526 5.43409C30.526 3.47902 28.9451 1.89491 26.9941 1.89491C25.043 1.89491 23.4621 3.47902 23.4621 5.43409C23.4621 7.38916 25.043 8.97326 26.9941 8.97326C28.9451 8.97326 30.526 7.38916 30.526 5.43409Z" fill="#6C6F00"/>
<path d="M35.9695 22.5184H34.1785C34.2085 20.4931 33.7783 18.5782 32.4375 17.0141C29.5559 13.6353 24.4331 13.6353 21.5515 17.0141C20.2208 18.5782 19.7805 20.4931 19.8105 22.5184H18.0195V20.3227C18.0195 19.691 18.6899 17.9866 19.0101 17.3851C22.3619 11.0085 31.6271 11.0085 34.979 17.3851C35.2991 17.9966 35.9695 19.691 35.9695 20.3227V22.5184Z" fill="#6C6F00"/>
</svg>
