<svg width="36" height="34" viewBox="0 0 36 34" fill="none" xmlns="http://www.w3.org/2000/svg">
<path d="M20.673 1.97215e-05C21.1682 -0.0127719 21.7905 0.217476 22.1968 0.524474C23.5555 1.58617 25.3587 3.70958 26.6413 5.01432C27.4667 5.85856 29.5238 7.52146 29.6762 8.65991C29.9301 10.5914 27.8857 11.9218 26.1841 11.0008C25.9428 11.3078 24 13.0858 24.0254 13.2521L35.5301 24.8796C37.0667 27.0414 34.4889 29.4206 32.4571 27.7194L21.0413 16.2453C20.8762 16.2197 19.1746 18.1001 18.8825 18.3431C18.7809 18.5606 19.0476 18.9571 19.0857 19.2258C19.3905 21.4387 16.9397 22.7562 15.2635 21.3108C13.2825 19.0083 10.5143 16.9233 8.60951 14.608C6.70475 12.2927 9.34602 9.4402 11.746 11.2054L11.8984 11.1415L19.0857 3.88866C17.727 2.50717 18.7555 0.051186 20.673 1.97215e-05ZM20.673 1.33034C19.9365 1.40709 19.4921 2.3025 19.9873 2.9165L26.8063 9.78557C27.7841 10.4252 28.8508 9.22274 28.1016 8.31454L21.4476 1.61176C21.2444 1.43268 20.9524 1.30476 20.673 1.33034ZM20.0254 4.87361L12.7365 12.216L17.9428 17.4605L25.2317 10.1182L20.0254 4.87361ZM17.5873 18.9443C15.4921 16.9616 13.4857 14.8894 11.454 12.8428C11.1619 12.5486 11.0476 12.2032 10.5905 12.0369C9.5492 11.6659 8.78729 12.8683 9.5492 13.6742C11.7587 15.5162 13.854 18.5478 16.0762 20.2491C17.1682 21.0933 18.2349 20.0956 17.5873 18.9315V18.9443ZM23.0603 14.1347C22.8698 14.4289 22.1968 14.8766 22.0571 15.1452C22.019 15.2092 22.0063 15.2476 22.0571 15.3115C25.9428 19.1618 29.727 23.14 33.6635 26.9263C34.4889 27.1309 34.9841 26.3635 34.5016 25.6599L23.0603 14.1347Z" fill="#9B9F00"/>
<path d="M24.5968 28.7171H25.9683C25.9683 28.7171 26.5651 28.9857 26.6413 29.0497C26.8825 29.2799 26.9841 29.7788 27.0222 30.0986C27.073 30.7381 27.0984 32.9255 26.8064 33.4116C26.6286 33.7058 26.1968 33.8849 25.8794 33.9872L1.52381 34.0128C0.850797 34 0.165083 33.7186 0.0634953 32.9639C-0.0126951 32.3371 -0.0126951 30.316 0.0888922 29.7148C0.152384 29.3183 0.634924 28.7299 1.02857 28.7299H2.4V27.0158C2.4 26.1843 3.51746 25.1354 4.35556 25.1354H22.7429C24.6603 25.4552 24.7365 27.1053 24.6095 28.7427L24.5968 28.7171ZM23.3524 28.7171V27.1693C23.3524 26.9007 22.8064 26.3634 22.4889 26.453H4.41905C4.15238 26.3762 3.70794 26.9135 3.70794 27.0798V28.7171H23.3397H23.3524ZM25.6762 30.0602H1.38413V32.6569H25.6762V30.0602Z" fill="#9B9F00"/>
</svg>
