<svg width="53" height="50" viewBox="0 0 53 50" fill="none" xmlns="http://www.w3.org/2000/svg">
<g clip-path="url(#clip0_58_2786)">
<path d="M19.208 24.2356C20.4643 24.167 20.3661 26.2348 20.6998 27.1658C21.0924 28.2732 21.7009 29.0181 22.545 29.8021C23.183 30.3901 24.0957 30.4685 23.8406 31.6151C23.7326 32.0953 23.1732 32.3501 22.702 32.2815C21.5243 32.1051 19.7772 30.0471 19.2276 29.0279C18.7172 28.0772 17.2646 24.3434 19.208 24.2356Z" fill="#6C6F00"/>
<path d="M27.2553 0.274394C27.5007 0.529196 27.7657 1.69541 27.9718 2.12661C32.2609 11.3681 42.4487 16.3171 40.2894 28.1654C37.6394 42.7479 15.4776 42.8459 12.6902 28.185C10.5407 16.9149 19.9629 11.8287 24.4581 3.27322C24.7428 2.72441 25.5868 0.440995 25.7439 0.274394C26.0972 -0.0882093 26.902 -0.0882093 27.2553 0.274394ZM26.6272 3.92002C26.3229 3.85142 26.4211 3.95922 26.3328 4.08662C25.4396 5.47824 24.6839 6.91885 23.7024 8.30066C19.4428 14.3277 13.4655 18.7769 14.6433 27.1364C16.4689 40.0333 35.5979 40.3959 38.1694 28.0184C39.9557 19.4433 34.0963 14.9255 29.6796 8.82986C28.5705 7.29125 27.3829 5.64484 26.6174 3.92002H26.6272Z" fill="#6C6F00"/>
<path d="M12.7496 35.8095C13.5937 35.6429 14.1237 36.3387 13.9666 37.1619C13.7802 38.1321 10.3155 38.6221 11.9252 40.2685C14.7911 43.1889 25.6463 43.4829 29.6016 43.2869C32.0848 43.1595 39.7992 42.1011 41.2715 40.0627C42.5376 38.3085 38.2387 38.2007 39.1024 36.3093C39.7207 34.947 42.1842 36.7797 42.7928 37.4951C45.2857 40.4253 41.8604 42.6107 39.3674 43.5613C32.6246 46.0995 19.3942 46.1779 12.7987 43.2281C10.7081 42.2971 8.32313 40.4253 9.86405 37.9361C10.2861 37.2501 11.9841 35.9663 12.7594 35.8095H12.7496Z" fill="#6C6F00"/>
<path d="M9.9717 30.6938C10.7863 30.6742 11.385 31.6542 10.8649 32.3598C10.5311 32.8204 8.59763 33.3594 7.94004 33.6534C2.51244 36.1427 -0.873666 40.0235 5.663 44.1297C9.23559 46.3739 13.505 47.1482 17.5684 48.04C18.5008 48.5692 18.0787 50.0392 16.95 49.9902C14.4178 49.8824 9.42207 48.285 7.0567 47.2168C-3.49422 42.4735 -1.55089 34.8099 8.39152 31.2034C8.78411 31.0564 9.60856 30.6938 9.96189 30.684L9.9717 30.6938Z" fill="#6C6F00"/>
<path d="M42.9401 30.6938C43.2149 30.684 44.2552 31.0956 44.5988 31.2132C54.5608 34.7903 56.4649 42.4931 45.9336 47.2266C43.5682 48.2948 38.5725 49.8922 36.0402 50C34.8919 50.049 34.4993 48.53 35.4219 48.0498C39.4558 47.158 43.7841 46.3739 47.3273 44.1395C53.8639 40.0137 50.4876 36.1525 45.0502 33.6534C44.3926 33.3496 42.4493 32.8008 42.1254 32.3598C41.6347 31.6836 42.1647 30.7232 42.9302 30.684L42.9401 30.6938Z" fill="#6C6F00"/>
</g>
<defs>
<clipPath id="clip0_58_2786">
<rect width="53" height="50" fill="white"/>
</clipPath>
</defs>
</svg>
