<svg width="40" height="40" viewBox="0 0 40 40" fill="none" xmlns="http://www.w3.org/2000/svg">
<g clip-path="url(#clip0_48_521)">
<path d="M0.621908 39.9999H0V39.8305L2.77032 29.8094C-2.17668 21.1149 0 10.2469 7.88693 4.12128C14.6714 -1.15748 24.4523 -1.38331 31.4912 3.5567C40.5654 9.90815 42.7703 22.4699 36.2686 31.5313C30.417 39.6612 19.364 42.2017 10.5159 37.4029L0.621908 40.0281V39.9999ZM4.83392 35.3422L11.0247 33.7331C22.6148 41.1008 37.4841 32.2652 36.523 18.5461C36.0141 11.1784 30.1343 4.85522 22.8693 3.64139C8.36749 1.24195 -1.69611 17.2194 6.4735 29.3012L4.83392 35.3422Z" fill="#D7DD17"/>
<path d="M14.7279 10.8678C14.7279 10.8678 15.0106 11.2348 15.0672 11.3477C15.7456 12.618 16.1414 14.227 16.7916 15.5538C16.8764 16.2595 16.1979 16.9652 15.7739 17.5016C15.4347 17.925 14.9541 18.0661 15.2085 18.7718C15.576 19.7034 17.3569 21.6794 18.1484 22.3851C19.0813 23.2037 21.0318 24.474 22.2191 24.7846C22.5583 24.8692 22.7279 24.8692 22.9824 24.6434C23.576 24.1071 24.1414 22.9779 24.7067 22.4698C25.159 22.0464 25.6113 22.3287 26.1202 22.5263C26.9965 22.8932 29.1166 23.8248 29.8516 24.3329C30.417 24.7281 30.2191 25.4338 30.106 26.0266C29.682 28.3696 27.1661 29.5552 24.9612 29.4423C23.2933 29.3576 20.4947 28.172 19.0248 27.3534C15.4629 25.3491 9.63961 19.28 9.95056 14.9045C10.0636 13.3519 11.3075 10.7267 13.0601 10.6138C13.4276 10.6138 14.5018 10.6138 14.7562 10.8396L14.7279 10.8678Z" fill="#D7DD17"/>
</g>
<defs>
<clipPath id="clip0_48_521">
<rect width="40" height="40" fill="white"/>
</clipPath>
</defs>
</svg>
